/* XPM */
static char *_be0663b38794c099272345804e38d659951dcvOvg6GvrvB[] = {
/* columns rows colors chars-per-pixel */
"60 60 226 2 ",
"   c #042710",
".  c #052A12",
"X  c #092D12",
"o  c #063216",
"O  c #093216",
"+  c #063418",
"@  c #0A3619",
"#  c #063A1D",
"$  c #0C3C1C",
"%  c #133B19",
"&  c #0D411F",
"*  c #19421C",
"=  c #22451C",
"-  c #0E4320",
";  c #0C4724",
":  c #114622",
">  c #134C26",
",  c #144F28",
"<  c #165127",
"1  c #16522A",
"2  c #18552C",
"3  c #16592D",
"4  c #195B2E",
"5  c #155932",
"6  c #1A5E31",
"7  c #265B2B",
"8  c #355C27",
"9  c #1B6434",
"0  c #1D6A37",
"q  c #1C663D",
"w  c #1D6D39",
"e  c #1E733B",
"r  c #1F7A3E",
"t  c #37652C",
"y  c #256834",
"u  c #316832",
"i  c #21763D",
"p  c #217A3F",
"a  c #2F783C",
"s  c #3C7637",
"d  c #4C702E",
"f  c #467836",
"g  c #1E6F42",
"h  c #1D7C46",
"j  c #217C41",
"k  c #24774F",
"l  c #4B843D",
"z  c #578439",
"x  c #6F923C",
"c  c #1F8246",
"v  c #1F9155",
"b  c #248545",
"n  c #248A46",
"m  c #2B8845",
"M  c #248C4A",
"N  c #388844",
"B  c #25944B",
"V  c #2A954D",
"C  c #279A4E",
"Z  c #34954C",
"A  c #3A9A4C",
"S  c #268D57",
"D  c #249253",
"F  c #279D52",
"G  c #289956",
"H  c #259B5B",
"J  c #369C54",
"K  c #28A452",
"L  c #29AC55",
"P  c #28A45A",
"I  c #2AAE59",
"U  c #3DA654",
"Y  c #2DB056",
"T  c #2BB15C",
"R  c #32B458",
"E  c #35B85A",
"W  c #289965",
"Q  c #339771",
"!  c #29A966",
"~  c #2CB463",
"^  c #2FB866",
"/  c #2DB668",
"(  c #2EB96C",
")  c #31BB6B",
"_  c #2DA677",
"`  c #31A47A",
"'  c #2BBB76",
"]  c #32BD74",
"[  c #32BF7A",
"{  c #4A8A41",
"}  c #4F9445",
"|  c #589646",
" . c #649945",
".. c #5DA24D",
"X. c #46A954",
"o. c #48AF57",
"O. c #53A752",
"+. c #57B95A",
"@. c #7AA547",
"#. c #6DB052",
"$. c #5FBB66",
"%. c #2FC375",
"&. c #39C675",
"*. c #33C27C",
"=. c #4AC35E",
"-. c #5EC15D",
";. c #6EC45D",
":. c #44C969",
">. c #53CC62",
",. c #55D969",
"<. c #4ED470",
"1. c #6ECA60",
"2. c #7BDA68",
"3. c #59E174",
"4. c #67E66D",
"5. c #72F077",
"6. c #91B94E",
"7. c #87C156",
"8. c #97CA58",
"9. c #99D15D",
"0. c #BBE15E",
"q. c #80CE61",
"w. c #9AD762",
"e. c #89E66C",
"r. c #96E76B",
"t. c #98F16F",
"y. c #88FD7C",
"u. c #96F776",
"i. c #B7E967",
"p. c #ACF571",
"a. c #CBFF6E",
"s. c #C1FF79",
"d. c #2FB783",
"f. c #42BC97",
"g. c #35C583",
"h. c #36C787",
"j. c #32CB82",
"k. c #35CB8A",
"l. c #39CA8B",
"z. c #37CA96",
"x. c #3CCE93",
"c. c #38D399",
"v. c #3BD49B",
"b. c #3DCEA2",
"n. c #37D1A1",
"m. c #3CD7A0",
"M. c #3ADAA3",
"N. c #3CDDAB",
"B. c #3EE0A4",
"V. c #3BE1AF",
"C. c #3EE1B1",
"Z. c #42CE90",
"A. c #62D380",
"S. c #54EC97",
"D. c #67ED87",
"F. c #7AFF8F",
"G. c #61F595",
"H. c #43C8A0",
"J. c #43D6A4",
"K. c #43D7A8",
"L. c #42DBAB",
"P. c #45DEB2",
"I. c #4ADFB6",
"U. c #4EDFB8",
"Y. c #53DEBB",
"T. c #5BDDBE",
"R. c #44E0B4",
"E. c #49E0B6",
"W. c #46EBB4",
"Q. c #57E7BC",
"!. c #5BE3BE",
"~. c #5CFBB7",
"^. c #68F4AE",
"/. c #6AF7BD",
"(. c #76F9BC",
"). c #5EDCC0",
"_. c #64DCC2",
"`. c #6BDBC5",
"'. c #6FDAC8",
"]. c #70DAC7",
"[. c #7ED7CD",
"{. c #74D9C9",
"}. c #7BD9CC",
"|. c #66E2C2",
" X c #66E8C3",
".X c #6BECC4",
"XX c #76E6C7",
"oX c #7AE5CB",
"OX c #69F6C1",
"+X c #78F5C9",
"@X c #99FF82",
"#X c #ADFF8F",
"$X c #8AFBAE",
"%X c #98EBB5",
"&X c #88FCB8",
"*X c #97FCB8",
"=X c #AAFFBF",
"-X c #D1FF88",
";X c #F1FF89",
":X c #FFFF99",
">X c #CAFFBE",
",X c #81DBCE",
"<X c #89DFCD",
"1X c #84DED0",
"2X c #82E6CF",
"3X c #94EACD",
"4X c #86FECD",
"5X c #88F8CA",
"6X c #99F8CB",
"7X c #8BE6D3",
"8X c #89E8D3",
"9X c #93EBD4",
"0X c #8CF8D2",
"qX c #94F2D4",
"wX c #98FAD5",
"eX c #ACFACE",
"rX c #B9FFC6",
"tX c #BAFFCC",
"yX c #A5FDD8",
"uX c #ADFFE1",
"iX c #C7FFC6",
"pX c #CBFFD4",
"aX c #EAFFD1",
"sX c #FFFFDE",
"dX c #CBFFE8",
"fX c #F8FFEE",
/* pixels */
"[.[.[.[.[.[.[.[.[.[.[.[.[.[.[.[.[.[.[.[.[.[.1X,X[.[.[.[.[.[.[.[.[.[.[.[.[.[.[.[.[.[.[.[.[.[.[.7XqXeX9X,X[.[.[.[.[.[.[.[.",
"[.[.[.,X[.[.,X[.[.[.[.[.[.[.[.[.[.[.[.,X[.1X7X7X[.[.[.[.[.[.[.[.[.[.1X[.[.[.[.[.[.[.[.[.[.[.[.9XtXeX9X[.[.,X[.[.[.[.[.[.",
"[.[.1X7X7X,X[.[.[.[.[.[.[.[.[.[.[.[.,X[.1X7XuXuX,X[.[.[.[.[.[.[.[.[.[.[.[.[.[.[.[.[.[.[.[.[.[.1XyX3X,X,X[.[.[.[.[.[.[.[.",
"[.,X9XyX7X,X,X[.[.[.[.[.[.[.[.[.,X9X9X7X1X7XqXwX[.[.[.[.[.[.[.[.[.[.[.[.[.[.[.[.[.[.[.[.[.[.[.[.,X,X,X,X[.[.[.[.[.[.[.[.",
"[.,X3XyX9X1X,X[.[.[.[.[.[.[.[.[.,X9XdXyX2X7X8X8X}.}.}.}.[.}.}.[.}.}.}.}.,X}.}.}.[.[.[.[.[.[.[.[.[.[.[.[.[.[.[.[.[.[.[.[.",
"[.[.3X3X<X1X}.}.[.[.{.[.[.{.[.[.7X6XiX6X1X}.}.}.}.}.}.}.}.}.}.}.}.}.[.[.[.}.}.}.}.[.}.[.}.}.[.[.[.[.[.[.[.[.[.[.}.[.[.[.",
"[.}.}.}.[.}.}.}.[.{.{.{.{.[.[.{.}.qX9X0X}.{.}.{.{.{.}.{.{.}.{.}.}.{.}.{.}.}.}.}.}.}.}.}.}.}.{.}.}.}.{.[.{.[.[.[.[.[.[.[.",
"}.}.}.}.}.}.{.{.{.{.[.[.{.].{.{.{.}.{.{.{.{.{.{.{.{.{.{.{.{.{.{.}.{.{.}.{.}.{.}.{.}.{.{.{.}.}.{.{.}.[.{.[.[.[.[.}.}.[.[.",
"{.}.{.{.{.{.{.{.{.{.{.{.{.{.{.{.].{.].].].].].].'.{.{.'.{.'.{.{.{.'.}.0X0X8X{.{.{.{.{.{.{.{.{.{.{.{.{.}.}.oX}.}.}.}.{.[.",
"{.{.{.{.{.].].].{.].].].].].].].{.].].].].].].].'.'.`.`.'.'.'.'.'.`.oXdXfX6X{.'.{.`.`.{.{.`.{.{.{.{.{.2XqX}.}.}.}.}.}.[.",
"].].{.'.].].`.`.].`.].].`.`.`.`.`.].`.`.].`.`.`.`.`.`.`.`.`.`.`.`.`.oX6XpX0XXX'.`.`.`.{.`.`.'.{.`.{.}.6XsX0X{.{.}.}.}.}.",
"'.'.`.`.`.`.`.`._.`.`.`.`.`.`.`.`.`.`.`.`.`.`.`.`.`.`.`._.`.`.`.`._.`.oX2X+X_.`.`.`.|.`.`.`.`.`.`.`.{.%XiXoX{.{.{.{.{.}.",
"'.`.`.`._.`._.`._.`._.`.`._.`.`._.`.`._.`._._._.`._.`.`._.`._.`.`._.|.`.|.`.|._.|._._.`._.|.`._.`.`.`.XXXX].{.{.'.{.{.}.",
"`._._._._._._._._._._._._._._._._._._._._._._.`._._._._._._._.).`.+X4X+X_._._._._._._._._._._._._._._._.`.`.|.XX2X'.{.{.",
"_._._..XXX.X_._._._._._._._.).)._.|.oX0X`._._._._._._.)._._._._.+X4XfXwX|._.).).).).).|.).).).)._._._._._._.`.wXyXoX'.{.",
"_.T..X5X*X*X.X).T.T.T._._._._._.|.4XeXrXyX_.).)._.)._.).).)._.).+X4X4X0X|._.).).).).).).).).).).).).).)._._._.XX+X`.'.'.",
"T._..X$X>X*XT.T.T.T.T.T.T._.).)..X6XiXsXtX+X)._.)._.).).).).).).|.+X+X|.).Y.).).).).).).).).Y.).T.T.T.T.T.T._._._._.`.`.",
"T.T..X&X&X(.|.T.T.T.T.T.T.T.).).|.5X=XiXyX X).).).).).).).).).).Y.).!.).!.).).!.).Q.E.).Y.Y.).Y.T.Y.T.T.T.T.T.T._._._.`.",
"T.T.T.!.|.T.Y.T.T.T.T.T.T.T.T.T.T..X+X4X+X).).).).).Y.Y.U.).).).).).).E.).E.).Y. X.XOX X!.!.Y.Y.Y.Y.Y.T.T.T.T.T.)._._.`.",
"T.Y.Y.T.Y.Y.Y.Y.Y.Y.Y.Y.Y.T.T.).T.T.T.|.Y.).Y.T.T.T.).).).).).U.U.).U.).).).U.Y. X&XrX(. XY.Y.Y.Y.Y.Y.Y.Y.T.T.T.T.)._._.",
"Y.Y.Y.U.Y.U.Y.Y.Y.Y.Y.Y.Y.Y.T.Y.Y.T.T.Y.T.Y.Y.).).).).I.).).).I.E.).E.).U.).).!.(.iXsX$XOXY.Y.Y.Y.Y.Y.Y.Y.Y.Y.Y.T.T.T._.",
"Y.Y.Y.U.U.Y.U.U.Y.U.U.Y.Y.Y.Y.Y.Y.Y.Y.Y.T.Y.Y.Y.I.I.).).I.U.I.).).).).E.).U.U.!./.$X$X+XQ.Y.U.Y.Y.Y.Y.U.Y.Y.Y.Y.T.T.T._.",
"U.U.U.U.U.U.Y.U.U.Y.U.Y.Y.U.Y.Y.Y.Y.Y.Y.Y.Y.Y.!.I.).Q.).U.U.).I.).R.I.).E.E.Y.E.!. XOXQ.U.Y.U.U.U.Y.U.U.U.U.Y.Y.Y.Y.T.T.",
"U.U.U.U.U.U.U.U.U.U.U.U.Y.k Q f.Y.Y.U.U.Y.U.E.Y.E.E.!.Q.U.R.).I.I.I.).Q.U.U.Y.E.I.U.U.U.U.U.U.U.I.I.I.I.U.U.U.U.Y.Y.Y.T.",
"U.U.U.I.U.U.U.I.U.U.U.U.U.1 , Y.U.U.U.U.U.U.E.U.Q.+X&X&X/.U.U.U.U.U.U.E.U.U.U.U.U.U.U.I.I.U.Y.I.I.U.Y.I.I.U.U.E.Y.E.Y.Q.",
"U.U.U.U.I.U.U.I.I.U.I.H.g , , H.E.E.E.U.E.U.U.E./.&XtX$X/.I.I.U.E.I.U.U.U.U.P.U.I.I.I.I.I.I.I.I.I.I.I.E.K.E.I.U.U.E.E.Y.",
"U.I.I.I.I.I.I.I.U.I.U.k 1 , 1 I.E.E.E.E.E.E.E.E./.*XpX&X~.I.I.I.I.I.E.E.R.U.U.U.I.I.I.I.I.I.I.I.I.E.E.I.Z.E.E.E.E.E.E.E.",
"I.I.I.I.I.I.I.I.J.I.I.< 1 < 1 U.E.E.E.E.E.R.R.R.~.OX(.~.I.I.P.P.E.R.E.E.R.R.R.R.E.E.J.E.E.E.P.P.I.P.I.h.J.E.E.E.E.E.L.L.",
"K.I.I.U.I.I.I.J.l.I.I., 1 , , L.E.R.E.R.P.R.R.R.R.R.R.R.P.P.P.P.R.R.R.R.R.E.R.K.R.J.h.E.R.E.E.J.J.P.x.] E.R.E.E.P.K.*.E.",
"J.P.I.P.K.U.I.) P.E.I.z.1 2 ` R.R.R.R.P.R.R.R.R.R.R.R.C.m.P.b.W R.R.R.R.R.R.L.h.R.] J.R.E.R.R.[ P.J.I x.R.E.R.R.L.~ L.h.",
"I.P.I.x.U.P.[ [ E.R.E.d.j P.k.l.v.N.R.R.C.R.N.C.C.R.R.R.d.C.` , R.R.R.R.R.L./ L.m.I L.R.R.R.l.g.L.T / R.R.R.R.L.~ ~ I %.",
"E.R.P.k.P.x.L J.R.R.E.q ! I *.R.R.c.C.M.*.c.R.C.C.C.C.k.l.C.g , C.C.C.C.R.) *.R.*.T R.R.R.P.I h.^ I x.R.R.R.R./ L L *.C.",
"h.L.g.h.v.L *.R.C.R.! e I c.R.C.( M./ ~ M.V.V.V.V.C.V.T V.S 1 q C.C.C.N./ T C.C.I %.R.R.R.g.L ] L g.R.P.P.N.~ L I M.C.x.",
"P.R.I h.D.:.R.R.C.x.e T v.C.C.j.%.I ~ N.c.k.c.V.V.C.k.I v.c 1 7 W.V.C.] I k.C.c.L h.k R.k.I L L I R.d._ P.( L I c.C.C.g.",
"c.x.L ^.y.$XP.v.h.B r c.C.C.c.I I I N.M./ M.n.V.V.V.~ ( ~ &.$.@X4XW.k.L ~ *.I L L W 1 G L I %.I g.R.q M ~ L L *.C.C.c.I ",
"wXG.L ) 4.Z.[ / h.r %.C.C.C.^ I I c.M.T c.z._ V.n.c.L L I A.F.aXyXOXI L L L L T L W 1 B E T T L v.c.1 h ~ L L g.V.N.T ,.",
"#Xy.E K V ~ L ] c M k.N.*.I L L / M.&.:.Z.D V.V.! v K L *.$.5.aXwXG.L L L L L L C b c E 4.,.Y T k.L K %.L L L j.( T >.@X",
"#Xy.V b / L *.L e I M./ L L L L S.S.>.>.} ~.B.T P 9 L / _ o.5.5X^.R L Y Y =.,.+.A b b ^ 4.,.Y ] L L c L L / L Y L I y.@X",
"@X$.b L C n / L e L K B L L L :.G.<.5.;.5.G.:.Y M 1 L j.' L l.&.) Y L K =.4.y.e.1.U g./ L L L ~ L L c L L L L L L Y 5.y.",
"+.g K V b P L I < c b K L I T 3.3.4.t.#X@X3.>.Z C r L c.v L L L Y B b A +.e.-X;Xu.<.k.L L L I L L L C L L K r c B B o.2.",
"b e n b C L T ! < 0 F L L K E 3.m 2.p.:X#X4.=.m B B K B r I I K B b n A ,.e.:X:Xu.^.C L I B C K L L e K B > e 9 b b b Z ",
"B L 0 c ~ L *.r < c I I F M E o.y { p.#Xt.-.X.b b K M e e K K n b b n L U +.r.u.D.:.e L b 0 C L L I 9 e & e e 1 n n b b ",
"L K b e L L d.c 0 H ! K b L T A u u } +.o.o.Z n / K e e e L M b b b C e b Z U A U / V h e r B L I B 0 o 0 0 0 1 w b b b ",
"B b n c c c D b 0 P ' h P L L V y A J X.o.Z n I B B 0 i e B b b b A m 0 . 0 3 M I c 9 9 n 3 r L K b & 9 b 0 < < 9 j b b ",
"w M b h 9 D ! b e c j 4 j.' W 5 6 m m V n b ! n / h 0 H e b b b +.1.{ 3     3 D F e 2 9 j v %.! b b . p b w , 1 9 1 p M ",
"v b b b 2 i b b 0 d.w 1 H W 5 ; i b n D b b b ! ' e 9 b e b b Z | } w b $   , c 0 q 9 i 9 5 H c b 9 . i m J w 1 g 9 0 c ",
"p b b e 5 0 b b e H i < h 6 1 1 b b n b b b h H b b 5 w 0 D 0 6 m 0 3 0 b 3   2 j h 9 b h - e b b > X o. .2.;.a b b w 5 ",
"4 0 i 6 N f o.Z 9 r b 1 > ; 1 1 b b b b 9 q 6 b b b 0 w 2 3 0 n b b h 3 - w $ > b 2 h b b . 3 r 1 ; % ;.w.p.q.} w 0 6 4 ",
"p 4 4 } ;. .#.+.m e 9 & * 4 2 < b p 4 > 1 r , b n n 9 e * 3 0 p b 6 . $ < @ b 0 6 2 2 b b   5 > > - = @.i.;Xw.| 7 2 2 0 ",
"9 0 N | 2.9.8.#.l 0 & < l O.7 0 4 & 4 1 3 e i b c e 3 & h < < l f d 7 0 1 6 o 6 , 6 , 2 , $ , @ - . %  .w.s.;.{ 1 0 9 1 ",
"> i l  .9.:Xi. .l 4 < l | ..s < @ 1 3 9 4 3 b e 3 3 & < c b l d e.2.#.7 < 9 @ o : , , - 1 , X   O $   7 ....l 7 , > , 6 ",
": > f | 7.i.6.| f & 3 u ..z 2 O : > 1 4 b @ i 1 o & & e 0 { z 7.8.u.;.f > < : o $ O 0 X ; @ . . 1 $ . $ 1 > > ; : : : 1 ",
"* : t l z z l l 7 . & * 7 & & @ : > & > 4 & < o o & + & < l x 9.a.i.@.f < > @ :   . 2 - , O   @ 2 > . @ : * & & & : $ : ",
"; $ & 7 f f t 7 3   o & & & o o & > @ : ; & . o o & + & # u | 7.8.@. .7 $ - X >   . 2 - . O     $ @ . @ ; & @ # $ @ @ $ ",
"o & @ $ & * @ @ &   X X & @ . X $ : + @ $ $ . o + + o + & & s z  .f 8 . . @ o $ >   : O .       @ , . o @ O + @ @ % X X ",
"+ . $ + + @ . . & . . . o @     @ O o o . @ . o . o . + # o # $ % : . X . o   @ @   $           $ > . O O . o % = X X X ",
"o o o . . . . o o . . . . o . . + . . . . . . o . o . + o . + . @ O . ;   O           X         @ $   X . o 8 d f d % X ",
"o o . . . . . . o . o .   o   . O . . . . . . + . . . o o . o . X .       +           +         X   . . . = d 6.6.x 8   ",
". .     .                 . .   .       . .   . . . . . . .   .   . .                 .           .       % d 6.0.@.8 X ",
"    .                                           . . . .   . .   .                                         X 8 x @.d X   "
};
