/* XPM */
static char *b56a71437c2040cca278d6b1662686c9KDsQA933Wn8nQFbd[] = {
/* columns rows colors chars-per-pixel */
"60 60 204 2 ",
"   c #042710",
".  c #052B12",
"X  c #0B2E16",
"o  c #063216",
"O  c #083216",
"+  c #063418",
"@  c #0A3619",
"#  c #063A1C",
"$  c #0C3C1C",
"%  c #133219",
"&  c #0D411F",
"*  c #074425",
"=  c #0E4320",
"-  c #0E4B24",
";  c #114622",
":  c #124C26",
">  c #154F28",
",  c #1E4F2A",
"<  c #135027",
"1  c #16522A",
"2  c #19552C",
"3  c #16592D",
"4  c #195B2E",
"5  c #175B33",
"6  c #1A5E31",
"7  c #234E2A",
"8  c #2D5834",
"9  c #385532",
"0  c #1B6433",
"q  c #1D6A37",
"w  c #1C663D",
"e  c #1D6D39",
"r  c #1E733A",
"t  c #1F7A3E",
"y  c #266637",
"u  c #356A3C",
"i  c #20763D",
"p  c #2A763F",
"a  c #217A3F",
"s  c #36733F",
"d  c #484F32",
"f  c #615C3F",
"g  c #47643C",
"h  c #295D5D",
"j  c #1E6F42",
"k  c #1B7945",
"l  c #226848",
"z  c #217640",
"x  c #217D42",
"c  c #267847",
"v  c #257E4B",
"b  c #297A59",
"n  c #357B74",
"m  c #735D41",
"M  c #795B41",
"N  c #5A6440",
"B  c #497E49",
"V  c #507D4A",
"C  c #5B7D58",
"Z  c #686A44",
"A  c #796547",
"S  c #66784C",
"D  c #74794E",
"F  c #7B7A51",
"G  c #8C5C46",
"H  c #A25D4A",
"J  c #886447",
"K  c #856C4C",
"L  c #9B634C",
"P  c #8A7954",
"I  c #9A7956",
"U  c #A2694E",
"Y  c #A96751",
"T  c #A56A52",
"R  c #B56A54",
"E  c #A47556",
"W  c #AD7357",
"Q  c #A97E58",
"!  c #B57359",
"~  c #B77459",
"^  c #C36655",
"/  c #C47B5A",
"(  c #1F8246",
")  c #1F9155",
"_  c #248545",
"`  c #2C8547",
"'  c #248A46",
"]  c #248C4A",
"[  c #258A4C",
"{  c #358749",
"}  c #3B8248",
"|  c #25934B",
" . c #279B4E",
".. c #258C52",
"X. c #27885B",
"o. c #398D56",
"O. c #249152",
"+. c #279F50",
"@. c #289B56",
"#. c #259B5A",
"$. c #289C58",
"%. c #28A452",
"&. c #28A454",
"*. c #29AC55",
"=. c #2AAE59",
"-. c #33A956",
";. c #2BB15D",
":. c #299966",
">. c #348774",
",. c #2A9470",
"<. c #339A75",
"1. c #2CA564",
"2. c #2BAB64",
"3. c #28A96A",
"4. c #2CB463",
"5. c #2DB56A",
"6. c #2EB96B",
"7. c #30BB6F",
"8. c #2CA476",
"9. c #2EAA78",
"0. c #35A273",
"q. c #2DBB71",
"w. c #2FB67C",
"e. c #28BA7A",
"r. c #32BD74",
"t. c #32BF7A",
"y. c #47844B",
"u. c #5E844F",
"i. c #549E57",
"p. c #569E5A",
"a. c #72845C",
"s. c #4FA661",
"d. c #29C57D",
"f. c #32C077",
"g. c #33C27C",
"h. c #8A8C5C",
"j. c #A78C56",
"k. c #B78C59",
"l. c #8AB979",
"z. c #D18F5A",
"x. c #CF9A5B",
"c. c #CCAF5A",
"v. c #CBB65C",
"b. c #DCB55D",
"n. c #3B7D85",
"m. c #44799D",
"M. c #4971AC",
"N. c #4B6EB0",
"B. c #5572CA",
"V. c #3A8786",
"C. c #369484",
"Z. c #3A9984",
"A. c #3C8B92",
"S. c #3E9295",
"D. c #35A882",
"F. c #36BD89",
"G. c #559E8A",
"H. c #428D98",
"J. c #449398",
"K. c #629391",
"L. c #43B38C",
"P. c #64A28C",
"I. c #449DAD",
"U. c #41ABA2",
"Y. c #68A6A2",
"T. c #35C683",
"R. c #39C787",
"E. c #33C986",
"W. c #35CB8A",
"Q. c #39CA8B",
"!. c #36CF93",
"~. c #3BCE93",
"^. c #38C598",
"/. c #39D196",
"(. c #36D49C",
"). c #3BD49C",
"_. c #3DCEA2",
"`. c #36D3A1",
"'. c #3CD7A0",
"]. c #39DAA4",
"[. c #3CDDAB",
"{. c #3BE1AF",
"}. c #3EE1B1",
"|. c #40D39E",
" X c #43C8A0",
".X c #43D6A4",
"XX c #43D9A6",
"oX c #45D5AB",
"OX c #42DBAB",
"+X c #45DEB2",
"@X c #4ADFB6",
"#X c #4EDFB8",
"$X c #53DEBB",
"%X c #5BDDBE",
"&X c #44E0B4",
"*X c #49E0B6",
"=X c #5EDCC0",
"-X c #63DCC2",
";X c #6BDBC6",
":X c #6FDAC8",
">X c #70DAC7",
",X c #7ED7CD",
"<X c #74D9C9",
"1X c #7AD9CC",
/* pixels */
",X,X,X,X,X,X,X,X,X,X,X,X,X,X,X,X,X,X,X,X,X,X,X,X,X,X,X,X,X,X,X,X,X,X,X,X,X,X,X,X,X,X,X,X,X,X,X,X,X,X,X,X,X,X,X,X,X,X,X,X",
",X,X,X,X,X,X,X,X,X,X,X,X,X,X,X,X,X,X,X,X,X,X,X,X,X,X,X,X,X,X,X,X,X,X,X,X,X,X,X,X,X,X,X,X,X,X,X,X,X,X,X,X,X,X,X,X,X,X,X,X",
",X,X,X,X,X,X,X,X,X,X,X,X,X,X,X,X,X,X,X,X,X,X<X,X,X,X,X,X,X,X,X,X,X,X,X,X,X,X,X,X,X,X,X,X,X,X,X1X,X,X,X,X,X,X,X,X,X,X,X,X",
",X,X,X,X,X,X,X,X,X,X,X,X,X,X,X,X,X,X,X,X,X,X,X,X,X,X1X1X,X,X,X,X,X,X,X1X,X,X,X,X,X,X,X,X,X,X,X1X,X,X,X,X,X,X,X,X,X,X,X,X",
",X,X,X,X,X,X,X,X,X,X1X,X,X1X,X,X1X1X1X<X,X,X1X1X1X1X1X,X,X1X1X,X1X1X1X1X1X1X1X1X,X,X1X1X1X1X1X1X,X,X,X,X,X,X,X,X,X,X,X,X",
",X,X1X1X,X,X1X1X,X1X1X1X1X1X1X,X1X1X,X<X,X<X1X,X<X1X1X1X1X1X1X1X1X1X1X1X1X1X1X1X1X,X1X1X1X1X1X1X,X1X,X,X,X,X,X,X,X,X,X,X",
"1X1X1X1X1X1X1X1X,X,X1X1X1X<X,X<X<X1X<X1X<X<X,X<X1X<X1X<X<X1X<X1X1X<X1X1X1X1X1X<X1X1X1X1X1X1X1X1X1X1X1X1X1X1X,X,X,X1X1X1X",
"1X1X1X1X<X1X<X1X<X<X<X1X<X<X<X,X>X1X<X<X<X<X<X<X<X<X<X<X<X<X<X<X<X1X<X<X1X1X1X<X1X1X1X1X1X1X1X1X1X1X1X1X1X,X,X,X1X1X1X1X",
"<X1X<X<X<X<X<X<X<X<X<X1X>X>X<X>X<X>X<X>X<X>X>X>X>X<X>X>X>X<X>X<X<X<X<X:X:X<X:X<X<X<X:X<X<X1X<X<X1X<X1X1X1X1X1X1X1X1X1X1X",
"<X<X<X<X>X>X>X>X>X<X>X>X>X>X>X>X>X>X>X>X>X>X>X>X>X>X>X>X>X>X>X>X:X:X:X:X<X:X:X:X:X:X:X:X:X:X:X:X<X<X<X<X<X<X<X1X1X1X1X1X",
">X>X>X>X>X;X>X>X>X;X>X>X>X>X>X>X;X;X;X;X;X;X;X;X;X;X;X;X;X;X;X>X:X;X;X:X:X;X;X;X:X:X;X;X:X:X:X:X:X:X<X:X<X<X<X<X<X1X1X1X",
">X:X:X;X;X;X;X>X;X;X;X;X;X;X-X;X;X;X;X;X;X;X;X;X;X;X-X;X;X-X;X;X-X;X;X:X;X;X;X;X;X;X;X;X;X;X;X;X:X;X;X:X:X:X<X<X<X<X1X<X",
":X;X;X;X;X-X-X-X-X-X;X-X;X-X-X;X;X;X;X-X-X;X;X-X;X;X-X;X-X;X-X;X-X;X-X-X-X;X-X-X-X-X;X-X-X-X;X;X;X;X;X:X;X:X:X<X<X<X<X<X",
";X-X-X-X-X-X-X-X-X-X-X-X-X-X-X-X-X-X-X-X-X-X-X-X-X-X-X-X-X-X-X=X-X-X-X-X-X-X-X-X-X-X-X-X-X-X-X-X-X-X-X-X;X;X;X;X:X<X<X<X",
"-X-X-X-X=X-X=X-X-X-X%X-X-X-X-X-X-X;X-X-X-X-X-X-X=X-X-X-X-X-X-X-X-X=X-X-X-X-X-X=X=X-X=X=X=X=X-X=X=X-X-X-X-X-X-X;X;X:X:X<X",
"=X=X=X=X=X=X=X=X%X-X-X%X-X-X=X-X%X%X-X-X-X-X=X-X-X=X-X=X=X=X-X=X-X=X=X=X-X=X=X=X=X%X=X%X=X=X=X=X=X=X=X=X-X-X;X-X;X;X:X:X",
"%X%X%X%X%X%X%X%X%X%X=X%X=X=X=X=X-X-X-X%X=X=X-X=X=X-X=X=X=X=X=X=X%X=X=X=X=X%X%X%X%X%X%X%X=X=X$X=X%X%X%X%X%X%X-X-X-X;X;X;X",
"%X%X%X%X%X$X%X%X$X%X%X%X%X=X=X%X%X%X%X-X=X=X=X=X=X=X=X=X=X=X=X=X%X%X%X=X%X%X=X%X%X%X%X$X$X%X%X$X%X%X%X%X%X%X%X%X-X-X-X;X",
"%X%X$X%X$X%X%X$X%X$X$X%X%X%X%X%X%X%X%X%X=X$X=X=X%X=X=X=X=X=X$X=X%X%X%X%X%X%X%X%X%X$X$X$X%X$X$X$X$X$X%X$X%X%X%X%X=X-X-X;X",
"=XoX$X$X$X$X$X$X$X$X$X%X$X%X%X%X%X%X%X%X=X=X$X=X$X=X%X$X#X=X=X$X$X%X$X%X$X$X$X$X$X%X$X$X$X$X$X$X$X$X$X$X$X$X%X%X%X%X-X-X",
"%X$X$X$X#X#X#X$X$X$X$X$X$X$X%X$X%X%X%X$X%X$X=X$X=X=X#X=X=X=X=X#X$X$X$X$X=X$X$X$X$X$X$X$X$X#X$X$X$X$X$X$X$X$X%X$X%X%X%X-X",
"$X#X#X#X$X#X$X#X$X$X$X$X$X$X$X$X$X$X%X$X%X$X$X$X@X@X=X=X#X#X=X#X$X$X$X$X*X$X$X$X$X$X$X#X#X$X#X$X#X#X$X#X#X$X#X%X%X%X%X-X",
"$X$X#X#X$X#X$X$X#X$X#X#X$X#X$X$X$X$X$X$X#X$X$X$X@X=X@X#X@X=X@X=X$X$X$X$X$X*X$X$X$X$X#X#X$X#X#X#X#X#X#X#X$X#X#X$X$X$X%X%X",
"$X$X$XoX#X#X#XoX$X#X#X#X$XX.<.L.oX%X$X#X#X#X#X$X=X@X=X#X#X#X@X@X$X$X$X*X$X$X*X#X#X#X#X#X#X#X#X#X#X#X#X#X#X*X$X#X$X$X$X%X",
"#X#X$X@X@X#X#X#X$X@X@X$X@X> > $X*X$X#X#X#X#X#X#X}.@X*X=X}.&X*X=X*X$X*X#X#X*X#X#X#X#X@X*X*X$X*X$X*X#X#X#X#X#X#X#X$X#X$X$X",
"$XoX#X@X@X@X@X@X@X@X@XoXl > >  X*X*X*X#X*X@X@X@X=X@X{.=X*X=X&X}.*X*X#X#X#X#X@X@X@X#X*X$X*X*X*X*X#X*X*X*XXX*X#X*X*X*X*X#X",
"#X@X@X@X#X@X@X@X@X@X@Xb > > 2 @X*X*X*X*X*X*X@X*X{.=X}.}.}.=X=X}.*X*X*X*X@X@X@X@X@X@X*X@X*X#X*X*X*X*X*X*X|.*X*X*X*X*X*X*X",
"@X@X@X@X@X@X@X@X.X@X@X> > > > @X*X*X*X*X&X*X&X&X}.}.}.=X&X&X&X}.*X*X&X*X&X*X&X*X*X*X|.*X*X*X+X*X*X*X*XR.|.*X*X*X*X*X+XOX",
"|.@X@X@X@X@X@X|.Q.@X@X> 1 1 > OX*X*X&X&X&X&X&X&X&X+X&X&X&X}.@X}.&X&X&X&X&X*X&XXX*X.XR.*X*X&X*X|.XX*X~.f.+X*X*X*X*XOXg.*X",
".X@X@X+X+X@X*X7.+X*X@X^.1 2 8.&X&X&X&X&X+X&X&X&X&X}.&X+X[.{._.,.&X&X&X&X&X&XXXW.&Xr.).&X*X&X&Xf.&X|.*.~.*X+X&X+XOX4.XXR.",
"*X*X*X/.*X*Xf.g.&X&X+XF.z +XW.Q.'.[.&X&X+X{.}.+X}.&X}.&XF.+X8.> &X&X&X&X&X+X6.XX.X*.&X&X&X&X~.g.OX;.;.*X&X&X&XXX;.4.*.f.",
"+X*X+XR.&X).-.|.&X&X&Xy 2.=.g.&X+X/.}.].t.(.}.}.}.}.}.W.E.}.j > }.&X}.{.+X6.g.&Xg.=.&X&X&X&X=.R.6.*./.&X&X&X&X6.*.*.g.&X",
"R.OXR.T.).*.g.&X&X&X1.r ;.).&X{.6.(.6.;.].{.{.{.{.}.{.;.[.X.1 0 }.}.&X{.4.;.&X}.=.f.+X}.&XT.*.r.*.T.&X+X&X}.4.*.=.(.&X/.",
"+X+X=.R.7.4.&X&X&XQ.r =.(.}.{.T.f.=.4.{.(.W.(.{.{.{.W.=.(.k 1 1 }.}.}.r.*./.+X/.*.T.v }.W.=.*.=.=.&X9.9.+Xq.*.*.(.&X}.g.",
").).*.~.*.R.&X).E.| _ /.{.+X).=.*.=.{.].6.].`.{.{.}.4.6.4.6.k 5.{.{.W.*.4.g.=.*.*.1.> $.%.*.t.*.T.&Xw ..;.*.*.g.+X{.(.;.",
"+Xg.*.7.*.F.g.5.T.t t.{.{.{.6.*.*.(.{.;./.!.8.}.`.!.*.*.*.,.5.T.}.{.*.*.*.*.*.4.*.:.1 ] =.*.4.*.'.(.1 k 4.*.*.E.{.[.;.*.",
";.=.*.+.@.2.*.r._ ] Q.[.g.=.*.*.6.(.4.=.w...{.{.1...&.*.d.v *.(.{.g.*.*.*.*.*.*. ._ ( *.*.*.*.4.E.*.&.6.*.*.*.E.f.*.=.i.",
"s.*.| _ 5.*.g.*.r *.].4.*.=.*.*.!.E.*.%.r {.(.;.=.0 *.4.8.| 4.{.W.*.-.*.*.*.*. ._ ' ( ;.*.*.*.6.*.*.' *.*.4.*.*.*.*.*.~ ",
"j.` ' *.+._ 5.*.r *.*.| *.*.*.4.E.=.2.r 4.E.*.*.] > *.E.9.*.d.6.6.=.p.%.+.+.@._ _ | T.6.*.*.*.4.*.*.' *.*.*.*.*.*.*.i./ ",
"R u %.| _ =.<.Z.1 ( _ +.*.*.*.6.6.*.r ] =.*.*.] @.t *.(.O.*.*.*.*.y.u._ _ ] _ _ _ 2.W.*.*.*.=.*.*.*.| *.*.%._ x |  .I W ",
"~ s ' _ | 1.S.S.1 q @.*.*.%.%.6.t | r *.*.*. ._ | | %.| t *.*.&.u.F } ' %.' ' _ @.(.| *.*.|  .%.-.0.i &.| 1 e q _ ' W E ",
"~ -.w _ 4.Z.I.n 1 _ &.=.%.] *. .1 5 ( _ '  .' _ ' %.] r q %.%.{ E P { %.| _ _ _ D.1.a %._ e  .*.l.P.l e & r i > ' ' P W ",
"h.+._ e *.Z.I.v q #.3.%._ <.Z.t 1 2 q _ _ _ _ ' 5.%.r q t *.] P Q v.i.i _ _ ' n K.L.| i y a | 0.G.V.l . e q q 1 q _ } y.",
"[ _ _ ( D C | _ q &.e.x <.J.H...1 x _ ` u._ ' *. .( q t t | _ I Q j.c 0 . q 2 V.H.b 0 u { 6 a Z.H.>.& 0 _ q > > 0 a _ ' ",
"y ] ' c U a.3.' q ( z 5 U.Y.A.3 6 _ } P P _ 3.[ 6.k e #.q _ _ I W T u 3     4 >.>.j 2 N D o.d.<.X._   a _ e 1 1 6 4 i ] ",
"O.' _ V R K ( ' q T.e 1 ,.C.5 > r V I I F _ _ 3.e.r 0 _ t _ _ S Y J y _ $   < _ j e 0 Z Z 8 #.( _ 0   i t ( e 1 i 6 q ( ",
"z _ _ K ^ T ` _ r ) i 1 z 5 > 1 v W k.E F _ a &._ _ 4 e e O.q 0 p 0 3 r _ 3   2 z ` A j.C 7 t _ _ >   _ 4 x _ 0 _ _ e 4 ",
"4 q p R b.~ } ' 0 k _ 1 > : 1 > B ! c.k.N q 6 _ M.n.q e 2 2 q _ _ _ t 3 & e $ : v N x.c.D X 2 t < ;   i 6 0 e 4 q 0 0 3 ",
"a 4 4 T / Y g ' q a 0 & ; , < , V R Y f 9 i < n B.N.w q ; 2 q x _ 0 . @ 1 @ _ 0 4 L z.k.V . 4 > > &   & ; 2 8 1 2 2 < y ",
"0 q 8 m Z A 9 4 4 0 & ; < a < q 3 d g , , i p m.B.N.2 - k > - 6 & X ; 0 1 6 o 0 , g ^ M > $ < O &     1 2 Z J 4 < y 0 < ",
"> e 1 9 f f 2 : < < < < , 6 < < @ < 3 0 4 4 _ b m.h & < _ e >   _ _ q 1 1 0 O o ; > 2 & 1 1 X   O $   ; y T J > < < < 4 ",
"; : : 1 , : ; : = @ 4 : 4 : ; o ; < < 6 _ @ i 2 $ & & r e 3 + - & _ 3 : : > : o $ O q o ; @   . 1 &   $ Z c.G ; ; ; ; 3 ",
"= ; ; : : ; & : ; . & ; & & & @ ; 1 & < 4 ; < . o # # & < - # - = < ; & : : O :     1 = 1 @   @ 2 : . O M Y G $ & = & & ",
"= $ & $ ; & @ & <   o & - & o @ $ : O & ; $ o o o & + & # # # < & o $ $ $ ; o ; . X 2 = . O     & @ . $ f H d @ @ & @ $ ",
"O & @ $ $ & O @ &   . o & O . . $ ; O $ $ $ . o + o . + & o & & $ o     . @ O $ ;   & O .       @ < . O @ % X O @ @ O . ",
"O . $ @ O @ . . &   . . O O .   $ o o O . O . o . o o # # o # o o # . X . X   @ $   $           $ :   @ O . o X O O . O ",
"O . . O o     . o . . . . o . . o . . . . . . o . o o o o o + . o O . *   o           .         % $   o . . O O . . . . ",
"O O . . o .   o . . o .   o .   o . . . . .   + . . o o . o o .   . . .   +           O         .       o . . . . . . . ",
". . . .         .   .     .     .   .   .         .   . . .   .   . .                                   . . . . .       ",
"                                                .   .     . .   . .                                                     "
};
