/* XPM */
static char *_97d5016a0ed4693951ae3bf8d3bccc2t5Idgwko1gMJr3Nx[] = {
/* columns rows colors chars-per-pixel */
"60 60 136 2 ",
"   c #042710",
".  c #052B12",
"X  c #063216",
"o  c #083216",
"O  c #063418",
"+  c #0A3618",
"@  c #063A1C",
"#  c #0C3C1C",
"$  c #0D411F",
"%  c #074425",
"&  c #0E4320",
"*  c #0E4B24",
"=  c #114622",
"-  c #134C26",
";  c #154F28",
":  c #135027",
">  c #16522A",
",  c #18562C",
"<  c #16592D",
"1  c #185B2E",
"2  c #175B33",
"3  c #1A5E31",
"4  c #1B6433",
"5  c #1D6A36",
"6  c #1C663D",
"7  c #1D6D39",
"8  c #1E733B",
"9  c #1F7A3E",
"0  c #20763D",
"q  c #217A3F",
"w  c #1E6F42",
"e  c #1A7543",
"r  c #1F7C41",
"t  c #1C7D4A",
"y  c #206B44",
"u  c #217D41",
"i  c #22754C",
"p  c #217E4D",
"a  c #297F59",
"s  c #1F8140",
"d  c #1E834C",
"f  c #1F9155",
"g  c #248545",
"h  c #248A46",
"j  c #20864B",
"k  c #248C4A",
"l  c #25934B",
"z  c #279B4E",
"x  c #248B52",
"c  c #268F5F",
"v  c #249253",
"b  c #279D52",
"n  c #289B56",
"m  c #22965A",
"M  c #259B5B",
"N  c #289C58",
"B  c #27A351",
"V  c #28A452",
"C  c #29AC55",
"Z  c #26A35F",
"A  c #29A55D",
"S  c #2AAE59",
"D  c #2BB15D",
"F  c #299763",
"G  c #249C61",
"H  c #2A9268",
"J  c #339771",
"K  c #24A163",
"L  c #2BA664",
"P  c #2AAA64",
"I  c #2AA468",
"U  c #26AA6C",
"Y  c #2AAD6B",
"T  c #2CB463",
"R  c #2DB56A",
"E  c #2EB96B",
"W  c #30BB6F",
"Q  c #2CA476",
"!  c #2CAE76",
"~  c #2FA57A",
"^  c #31A47A",
"/  c #2DBB71",
"(  c #2FB67C",
")  c #29BB7B",
"_  c #32BD74",
"`  c #32BF7A",
"'  c #29C37B",
"]  c #32C077",
"[  c #33C27C",
"{  c #31AC81",
"}  c #25BF80",
"|  c #36BD89",
" . c #42BC97",
".. c #2FC781",
"X. c #35C683",
"o. c #39C787",
"O. c #33C986",
"+. c #38C887",
"@. c #36C68A",
"#. c #35CB8A",
"$. c #39CA8B",
"%. c #3CC297",
"&. c #36CF93",
"*. c #3BCE93",
"=. c #39D196",
"-. c #36D49C",
";. c #3BD49C",
":. c #3DCEA2",
">. c #37D1A1",
",. c #3CD7A0",
"<. c #36D8A1",
"1. c #39DAA4",
"2. c #3CDDAB",
"3. c #3BE1AF",
"4. c #3EE1B1",
"5. c #40D39E",
"6. c #43C8A0",
"7. c #43D6A4",
"8. c #43D9A6",
"9. c #45D5AB",
"0. c #42DBAB",
"q. c #45DEB2",
"w. c #4ADFB6",
"e. c #4EDFB8",
"r. c #53DEBB",
"t. c #5BDDBE",
"y. c #44E0B4",
"u. c #49E0B6",
"i. c #5EDCC0",
"p. c #63DCC2",
"a. c #6BDBC6",
"s. c #6FDAC8",
"d. c #70DAC7",
"f. c #7ED7CD",
"g. c #74D9C9",
"h. c #7AD9CC",
/* pixels */
"f.f.f.f.f.f.f.f.f.f.f.f.f.f.f.f.f.f.f.f.f.f.f.f.f.f.f.f.f.f.f.f.f.f.f.f.f.f.f.f.f.f.f.f.f.f.f.f.f.f.f.f.f.f.f.f.f.f.f.f.",
"f.f.f.f.f.f.f.f.f.f.f.f.f.f.f.f.f.f.f.f.f.f.f.f.f.f.f.f.f.f.f.f.f.f.f.f.f.f.f.f.f.f.f.f.f.f.f.f.f.f.f.f.f.f.f.f.f.f.f.f.",
"f.f.f.f.f.f.f.f.f.f.f.f.f.f.f.f.f.f.f.f.f.f.g.f.f.f.f.f.f.f.f.f.f.f.h.h.f.f.f.f.f.f.f.f.f.f.f.f.f.f.f.f.f.f.f.f.f.f.f.f.",
"f.f.f.f.f.f.f.f.f.f.f.f.f.f.f.f.f.f.f.f.f.f.f.f.f.f.h.h.f.f.f.f.f.f.h.h.f.f.f.f.f.f.f.f.f.f.f.h.f.f.f.f.f.f.f.f.f.f.f.f.",
"f.f.f.f.f.f.f.f.f.f.h.f.f.h.f.f.h.h.h.g.f.f.h.h.h.h.h.f.f.h.h.f.h.h.h.h.h.h.h.h.f.f.h.h.h.h.h.h.f.f.f.h.f.f.f.f.f.f.f.f.",
"f.f.h.h.f.f.h.h.f.h.h.h.h.h.h.f.h.h.f.g.f.g.h.f.g.h.h.h.h.h.h.h.h.h.h.h.h.h.h.h.h.h.h.h.f.h.h.h.f.h.h.h.f.f.f.f.f.f.f.f.",
"h.h.h.h.h.h.h.h.f.f.h.h.h.g.f.g.g.h.g.h.g.g.f.g.h.g.h.g.g.h.g.h.h.h.g.h.h.h.h.h.f.h.h.h.h.h.h.h.h.h.h.h.h.f.f.f.h.h.h.h.",
"h.h.h.h.g.h.g.h.g.g.g.h.g.g.g.f.d.h.g.g.g.g.g.g.g.g.g.g.g.g.g.g.g.s.h.h.g.h.h.h.h.h.h.h.h.h.h.h.h.h.h.h.h.f.f.h.h.h.h.h.",
"g.h.g.g.g.g.g.g.g.g.g.h.d.d.g.d.g.d.g.d.g.d.d.d.d.g.d.d.d.g.d.g.g.s.g.g.g.g.s.g.g.g.g.s.g.h.g.g.h.h.g.h.g.h.h.h.h.h.h.h.",
"g.g.g.g.d.d.d.d.d.g.d.d.d.d.d.d.d.d.d.d.d.d.d.d.d.d.d.d.d.d.d.d.s.a.s.s.s.s.s.s.s.s.s.s.s.s.s.s.h.g.g.g.g.h.h.g.h.h.h.h.",
"d.d.d.d.d.a.d.d.d.a.d.d.d.d.d.d.a.a.a.a.a.a.a.a.a.a.a.a.a.a.a.d.a.a.a.s.s.s.a.a.s.s.a.s.s.s.s.s.s.s.s.s.g.s.g.h.g.h.h.h.",
"d.s.s.a.a.a.a.d.a.a.a.a.a.a.p.a.a.a.a.a.a.a.a.a.a.a.p.a.a.p.a.a.a.a.a.a.p.a.a.a.a.a.a.a.a.a.a.a.s.s.s.s.s.s.g.s.g.g.h.h.",
"s.a.a.a.a.p.p.p.p.p.a.p.a.p.p.a.a.a.a.p.p.a.a.p.a.a.p.a.p.a.p.a.p.p.a.p.a.p.p.p.p.p.a.p.p.p.a.a.p.a.a.a.s.s.s.s.s.g.g.g.",
"a.p.p.p.p.p.p.p.p.p.p.p.p.p.p.p.p.p.p.p.p.p.p.p.p.p.p.p.p.p.p.i.p.p.p.p.p.p.p.p.p.p.p.p.p.p.p.p.p.p.p.p.p.a.a.s.g.s.g.g.",
"p.p.p.p.i.p.i.p.p.p.t.p.p.p.p.p.p.a.p.p.p.p.p.p.i.p.p.p.p.p.p.p.p.p.p.p.p.p.i.p.i.i.i.i.i.i.i.i.p.p.p.p.p.p.a.s.s.s.s.g.",
"i.i.i.i.i.i.i.i.t.p.p.t.p.p.i.p.t.t.p.p.p.p.i.p.p.i.p.i.i.i.p.i.p.i.i.i.i.i.i.i.i.i.i.i.i.i.i.i.i.i.i.p.p.p.p.p.a.a.a.g.",
"i.t.i.i.t.t.t.t.t.t.i.i.t.p.p.p.p.p.p.t.i.i.p.i.i.p.i.i.i.i.i.i.i.i.i.i.i.t.t.t.t.t.t.t.t.t.t.t.t.t.t.t.t.p.t.p.p.p.a.d.",
"t.t.t.t.t.t.r.t.r.t.t.t.t.t.t.t.t.t.t.p.i.i.i.i.i.i.i.i.i.i.i.i.i.t.t.t.t.t.t.t.t.t.t.r.r.t.t.r.t.r.t.t.t.t.t.p.p.p.p.a.",
"t.r.r.r.r.r.r.t.t.r.t.t.t.t.t.t.t.t.t.t.i.r.i.i.t.i.i.i.i.i.r.i.t.t.t.t.r.t.r.t.t.t.r.r.r.t.r.r.r.t.r.t.t.t.t.t.p.p.p.a.",
"t.r.r.r.r.r.r.t.r.r.r.r.r.r.t.t.t.t.t.t.i.i.r.i.r.i.t.r.e.i.i.r.t.r.r.t.r.t.r.t.r.r.r.r.r.r.r.r.r.r.r.r.r.r.r.t.t.t.p.p.",
"r.t.r.r.r.e.r.t.r.r.r.r.r.r.t.r.t.t.t.r.t.r.i.r.i.i.e.i.i.i.i.e.r.r.t.r.e.i.i.r.r.r.r.r.e.r.r.r.r.r.r.e.r.r.r.r.t.t.p.p.",
"9.t.w.r.e.r.e.9.r.r.r.r.e.r.r.r.r.r.t.r.t.r.r.r.w.w.i.i.e.e.i.e.r.r.r.r.i.e.u.r.r.r.r.r.e.r.r.r.e.r.e.r.e.r.r.r.r.t.t.p.",
"r.r.r.w.e.e.w.r.w.r.9.t.r.r.r.r.r.r.r.r.e.r.r.r.w.i.w.e.w.i.w.i.r.r.e.r.u.u.r.r.r.e.e.e.e.r.e.e.r.e.e.r.r.r.e.r.r.t.t.t.",
"w.w.r.w.e.e.w.w.r.r.r.e.e.a J  .9.t.r.e.e.e.e.r.i.w.i.e.e.e.w.w.r.e.r.e.r.e.r.u.e.e.e.e.e.e.e.e.u.e.u.e.u.r.u.r.r.r.r.r.",
"w.r.e.e.w.e.e.e.r.w.w.r.e.; ; r.u.i.u.e.e.e.e.e.4.w.u.i.4.y.u.i.u.e.u.w.r.u.w.e.e.e.e.e.e.e.e.e.e.e.r.u.u.e.e.e.e.e.r.r.",
"w.w.e.e.e.w.w.w.w.w.w.9.y ; ; 6.u.u.u.e.w.w.w.w.i.w.3.i.u.i.y.4.u.u.r.u.w.w.w.w.w.u.e.e.u.e.u.u.u.u.e.u.8.e.u.u.e.e.u.e.",
"w.w.w.w.w.w.w.w.w.w.w.i ; > > e.u.u.u.u.u.u.u.u.3.i.4.4.4.i.i.4.u.u.u.u.w.w.w.w.w.w.e.u.u.w.u.u.u.u.u.e.5.u.u.u.u.u.u.u.",
"w.w.w.w.w.w.w.w.7.w.w.; > ; > w.u.u.u.y.u.y.y.w.4.4.4.i.y.y.y.4.u.u.u.u.u.u.u.u.u.y.5.y.u.u.u.y.u.u.u.[ 5.u.u.u.u.u.q.0.",
"5.e.u.u.w.w.w.5.$.q.w.> > ; ; 0.y.u.y.y.y.y.y.y.y.y.y.q.y.4.w.4.y.y.y.y.y.u.y.8.y.7.o.u.u.y.u.5.8.u.$.] u.u.q.u.u.0.[ y.",
"7.u.u.9.9.e.u.W q.u.u.%.> > ^ q.y.y.y.y.q.q.y.y.q.y.4.y.2.3.:.H y.y.y.y.y.u.8.$.y._ 5.y.u.y.y.] u.5.C *.q.q.u.q.0.T 0.o.",
"u.u.y.5.w.w.] [ y.u.u.| u q.$.*.,.2.4.y.q.4.4.4.4.4.4.q.| q.{ - y.y.y.y.y.0.E 8.8.C y.y.y.y.*.[ 0.D T u.q.y.y.0.D T C ] ",
"y.u.y.o.q.5.C 5.y.y.u.6 L S ` 4.q.;.4.1.` ;.4.4.y.4.4.O.O.4.w ; 4.4.4.4.y.E [ y.[ C y.y.y.y.S +.E C =.y.y.y.y.E C C [ y.",
"o.0.[ o.5.C [ y.y.y.L 8 S ;.4.y.E <.E D 1.3.3.3.2.4.4.D 2.c ; 3 y.4.4.2.T D 3.3.S ] q.y.4.X.C _ C X.y.y.y.3.T S S ;.y.=.",
"q.q.D $.W T y.y.y.#.8 D ;.4.3.X./ S T 3.-.#.-.3.4.4.#.S <.r ; ; 4.4.4.` S =.y.=.C +.p y.@.S C S S y.~ ~ y.W C C ;.4.4.[ ",
";.=.C *.C $.0.5.O.l 9 =.y.3.-.S S S 2.1.E 1.>.4.3.3.T E T E t R 4.3.#.C D [ S S C I > n C C ] C X.4.6 x D C C [ 3.3.;.S ",
"y.[ C W C | [ E X.q [ 4.3.3.E S C -.2.T =.&.Q 4.>.&.C C C F ! ..3.2.S C S C C D C F : l S C D C ;.;., r T C C O.3.3.D S ",
"D S C b n P C ] s l #.2.] S C C E -.T S ( x 3.3.I f V C ' p C -.3.[ C C C C C C l h s C C C C T O.C N E C C C +.E S C C ",
"D C l g W V [ C 8 C 1.E C S C C &...S B 8 3.-.D S 4 C R Q l T 4.#.C C C C C D l g h s T C C C E C C h C C E C C C C C C ",
"V h g C z h T C 8 V V l C C C T O.D D 8 T #.V C k > C ..! C [ E E C D B B z N g g l X.E C C C T C C h C C C C C C C C B ",
"q 0 B l h A C C : h g B C C C E R C 8 l C C C l z 9 C -.v C C C C l g g g k g g h L #.C C C S C C C z C C B s s z z l g ",
"h 8 h g l C D L : 5 z C C V V E y l 8 C C C z g l l V h s C C V k g g k B h g g N -.l C S l z B V C q B l : 0 4 g h g g ",
"l C 4 g T C X.u > g A S B k C z ; 3 h s h z g g h B l 0 7 V V h g g h V l g g g Y L 8 C d 7 z V C C 4 8 $ 8 7 > h h g g ",
"S B u 7 C C ) g 5 n Y B g C C q ; 1 5 g g g g k T V 0 5 q C k g g g z 9 u g h h x T l g 5 s z C C z 4 o 7 5 5 > 5 g g g ",
"k h h d g h v g 5 Z ) q A C C k > u g g l g h C l h 5 q q k g g q g u 5 . 5 < k C u 4 4 k < q C B g = 4 g 5 - : 5 u g g ",
"7 k g e 3 m U g 5 g u 3 ' ' K > 3 g g l g g Y g / r 5 M 5 g g g g 5 5 ,     , v M 0 1 4 s x ' K g g . q g 7 > > 3 , 0 k ",
"f h g g , 8 g g 5 } 7 ; G G 2 > 0 g g x g g h U ) 8 3 h 8 h g g 7 4 5 g # . : g 5 5 4 8 4 < m h g 4 . 0 0 j 5 ; 0 3 7 p ",
"q g g 0 3 4 g g w M 0 > u 2 ; ; g g k g g g u G g g 3 5 5 v 7 3 8 < , 7 g <   , 0 t 4 h t & q g g - . g , u g 5 g g 7 1 ",
", 5 0 1 5 > g g 4 0 g > - - ; > g g g u 3 5 3 g g g 5 7 , < 5 h h h r < & 7 # - g > 0 g g . , q > =   0 3 4 7 1 5 5 1 1 ",
"q 1 , 5 g , 4 g 5 0 4 $ = , ; > u q 1 - > 0 > s h h 4 8 & , 5 q g 4   + , + g 5 3 , > g g . 2 = ; =   # - , , > , , > 5 ",
"4 5 1 > 8 , , 1 1 5 $ = > 0 > 5 , $ , , , 0 q g s 7 < = e - - 3 $ X = 5 > < . 4 - 3 ; > ; # - # =     ; , 5 3 , > 4 3 , ",
"- 7 , - ; , - - - : > : , 3 - : + > , 3 1 1 s 0 < < $ : g 8 -   g g 5 > ; 4 + X = > ; $ ; ; X   o #   = 4 1 > > ; ; ; 1 ",
"= - = , - - = - & + 1 - 1 = = o - - > 3 s + 0 , X $ * 8 7 < O - $ g < - ; - - X $ o 5 . = #     ; # . # > - - = = = = , ",
"= = = = - = = = $ . $ = $ $ $ + = : $ : 1 = : . X $ @ $ * $ @ * $ ; = $ - ; o =   . , = ; o   + , - . o = = = # & = # & ",
"$ # = # = = o = :   X $ * $ X X # - + $ = $ . o X $ X $ $ @ $ : $ o # # # = X -   . > = X o     # + . + = # o # + # + # ",
"X $ + # # $ o + $   . X $ o . . # = o # # # . o O X X X $ X $ $ # X . .   + o # =   = o         + ; . o o o o + o # + . ",
"o . # + X + . . $ . . . o o .   # o X o . o . + . X . O $ X @ X X @   X . o   o #   #           # ;   o o o o o o o . o ",
"o X X . X     X X . . .   X .   . . . . . .   X . X X X X X X . o O   %   o           .         + #   X . . o o   . . . ",
"X o . . X . . . X . X .   X . . o . . . . . . X   . . X X X . X   .   .   @           o         .       . o o . .   .   ",
"        .           .     . .   .         . . . . . . . . . .     . .                                 .   . . . .       ",
"    .                                     .         .     .   . .                                                       "
};
