/* XPM */
static char *cc3b6f9e85624dd2cb594525e7c3d5634lKN63zqxS7dUXmj[] = {
/* columns rows colors chars-per-pixel */
"60 60 217 2 ",
"   c #042710",
".  c #062A13",
"X  c #092D15",
"o  c #0B2E19",
"O  c #073015",
"+  c #093217",
"@  c #0C331A",
"#  c #0D391E",
"$  c #11331D",
"%  c #11391F",
"&  c #0E3B21",
"*  c #133C22",
"=  c #183B26",
"-  c #0F4026",
";  c #144325",
":  c #164729",
">  c #1C442B",
",  c #1A4C2C",
"<  c #1C522F",
"1  c #1C4A31",
"2  c #1E5531",
"3  c #1E5A34",
"4  c #21432F",
"5  c #254734",
"6  c #244B35",
"7  c #215B35",
"8  c #27583A",
"9  c #24633A",
"0  c #2A643F",
"q  c #256B3D",
"w  c #2D5B42",
"e  c #385948",
"r  c #296C43",
"t  c #37674A",
"y  c #277341",
"u  c #2A7344",
"i  c #297B45",
"p  c #2B7A48",
"a  c #35744C",
"s  c #3E6851",
"d  c #3E7654",
"f  c #405D4F",
"g  c #426754",
"h  c #48775C",
"j  c #4F6E61",
"k  c #4E7762",
"l  c #527363",
"z  c #587B6A",
"x  c #5F7C70",
"c  c #627D73",
"v  c #2D834C",
"b  c #2D8A4E",
"n  c #2A8B52",
"m  c #338D53",
"M  c #3A8958",
"N  c #379759",
"B  c #37A35D",
"V  c #33AE5D",
"C  c #34B05F",
"Z  c #36B162",
"A  c #3BB265",
"S  c #3FB368",
"D  c #3AB06E",
"F  c #44835D",
"G  c #40945F",
"H  c #488A62",
"J  c #55856B",
"K  c #459566",
"L  c #509A6D",
"P  c #5D8371",
"I  c #5F8A74",
"U  c #5A9A75",
"Y  c #628475",
"T  c #618A76",
"R  c #68877A",
"E  c #6A8A7D",
"W  c #64937B",
"Q  c #66937D",
"!  c #49A76C",
"~  c #43B46C",
"^  c #48B66F",
"/  c #4BA271",
"(  c #57A577",
")  c #4CB673",
"_  c #4CBB79",
"`  c #54BA7A",
"'  c #57BB7C",
"]  c #61A77E",
"[  c #6E8D81",
"{  c #738F85",
"}  c #6D9382",
"|  c #6B9A83",
" . c #719485",
".. c #77958A",
"X. c #759B8A",
"o. c #7A9D8E",
"O. c #7D9D91",
"+. c #53A980",
"@. c #5BBB84",
"#. c #69A786",
"$. c #75A48D",
"%. c #79A18F",
"&. c #72AD8E",
"*. c #67B889",
"=. c #7DA393",
"-. c #7CAB94",
";. c #79AD95",
":. c #6DB691",
">. c #75B292",
",. c #7AB395",
"<. c #74BC95",
"1. c #7DB49A",
"2. c #76BA99",
"3. c #7CBB9B",
"4. c #7CBDA5",
"5. c #3CC887",
"6. c #48C78B",
"7. c #57C288",
"8. c #4BCD96",
"9. c #6AC18C",
"0. c #69C391",
"q. c #75C497",
"w. c #7BC69C",
"e. c #7EC89F",
"r. c #4FD7A8",
"t. c #5BDBB3",
"y. c #5CDEBE",
"u. c #7DCAA2",
"i. c #7ECAAB",
"p. c #7CCCB0",
"a. c #62DDBC",
"s. c #7CD6B7",
"d. c #4BE1B5",
"f. c #55E1BA",
"g. c #63E1BF",
"h. c #5FDCC0",
"j. c #64DCC1",
"k. c #6BDCC5",
"l. c #71DCC7",
"z. c #7BDEC2",
"x. c #7ED7CD",
"c. c #75DAC9",
"v. c #7BDACC",
"b. c #6AE0C2",
"n. c #73E1C6",
"m. c #78E0C7",
"M. c #7CE1C9",
"N. c #819A94",
"B. c #81A395",
"V. c #87A99B",
"C. c #84AD9C",
"Z. c #83B49D",
"A. c #83B89E",
"S. c #8DACA1",
"D. c #89B5A3",
"F. c #85BBA2",
"G. c #89BBA4",
"H. c #95B8AB",
"J. c #9ABDB1",
"K. c #A0BAB4",
"L. c #80C89F",
"P. c #85C6A6",
"I. c #83CAA4",
"U. c #84CDAA",
"Y. c #8ACDAB",
"T. c #92C7AE",
"R. c #82D1AD",
"E. c #87C9B3",
"W. c #94CEB2",
"Q. c #99C9B7",
"!. c #83D4B3",
"~. c #8CD1B3",
"^. c #85D5B8",
"/. c #8CD6BA",
"(. c #85D9BC",
"). c #8AD8BD",
"_. c #95D2B8",
"`. c #9CD1BA",
"'. c #A1C3B7",
"]. c #A5CABC",
"[. c #A3D3BE",
"{. c #89D5C0",
"}. c #85DBC2",
"|. c #8BDDC5",
" X c #80D7CE",
".X c #83DCCD",
"XX c #8BDECE",
"oX c #9AD6C2",
"OX c #97DBC7",
"+X c #87DAD0",
"@X c #8CDCD1",
"#X c #93DED2",
"$X c #9ADED5",
"%X c #9EDDD7",
"&X c #9FDED8",
"*X c #A3D4C2",
"=X c #A9D7C7",
"-X c #A5DED3",
";X c #A4DED9",
":X c #ABDEDB",
">X c #85E1CC",
",X c #8BE2CD",
"<X c #92E2CE",
"1X c #9EE0CE",
"2X c #8EE1D0",
"3X c #93E2D2",
"4X c #9CE1D4",
"5X c #A3E2D6",
"6X c #A9E2D7",
"7X c #A6E2D8",
"8X c #ACE2D9",
"9X c #B3E2DB",
"0X c #BCE3DD",
"qX c #BCE1E0",
"wX c #C1E3DF",
"eX c #C5E3E1",
"rX c #CAE3E3",
/* pixels */
"x.x.x.x.x.x.x. Xx.x.x.x.x.x.x.x.x.x.x. Xx.+X:X:X&X&X%Xx.x.x.x.x.x.x.x.x.x.x.x.x.x.x.x.x.x.x.x.x.x.x.x.x.x.x.x.x.x.x.x.x.",
"x.x.x.x.x.x.x.x.x.x.x.x.x.x.x.x.x.x.+X+X%X;XqX:X%X:X:X+X X X Xx.x.x.x.x.x.x.x.x.x.x.x.x.x.x.x.x.x.x.x.x.x.x.x.x.x.x.x.x.",
"x.x.x.x.x.x.x.x.x.x.x.x.x.x.x.x.x. X#X&X:XeXrXqX:XqXrX&X+X X Xx.x.x.x.x.x.x.x.x.x.x.x.x.x.x.x.x.x.x.x.x.x.x.x.x.x.x.x.x.",
"x.x.x.x.x.x.x.x.x.x.x.x.x.x.x.c.x. X:XqXqXeXqXqXqXrXqXqX:X%X Xx.x.x.x.x.x.x.x.x.x.x.x.x.x.x.x.x.x.x.x.x.x.x.x.x.x.x.x.x.",
"x.x.x.x.x.x.x.x.x.x.x.x.x.x.c.x.x.+XqXrX:XqXqXqXrXqX:XqXqXqXx.x.x.x.x.x.v.x.x.x.x.x.x.x.x.x.x.x.v.x.x.x.x.x.x.x.x.x.x.x.",
"x.x.x.x.v.x.c.x.x.x.c.x.c.c.x.x.x.:XeXrXeXqXqXqXqX:X&X&X:X:X+Xx.x.x.x.c.v.v.v.x.c.x.x.x.c.x.x.x.x.x.v.x.x.x.x.x.x.x.x.x.",
"x.c.x.v.v.x.v.x.x.c.x.c.x.c.x.x. X;XrXeXeXqX:X:X:X:X&X&X&X&X+Xx.c.c.c.v.v.c.x.v.x.x.c.c.x.x.c.x.v.v.x.x.x.x.x.x.x.x.x.x.",
"x.c.c.x.c.c.c.c.x.c.c.x.c.c.c.x.x.:XrXrXeXqX:X:X&X&X&X&X&X&X+Xx.x.c.x.v.c.v.c.c.c.c.c.x.c.c.x.c.x.x.v.x.x.x.x.x.x.v.x.v.",
"c.x.c.c.c.c.c.x.k.c.c.c.c.c.c.c.x.&XrXrXeX:X:X:X;X&X%X%X$X#X#Xx.c.c.c.c.c.c.c.c.c.c.c.c.c.c.M.m.v.v.v.v.v.v.v.x.x.x.x.x.",
"c.c.c.c.c.c.c.k.c.c.k.c.c.c.c.c.x.:XrXrXqX8X7X;X;X&X&X&Xx.x.x.c.l.c.c.c.v.c.c.c.c.c.c.c.c.c.c.m.v.v.v.v.v.v.v.x.v.v.x.v.",
"c.c.k.c.c.k.k.k.k.k.k.k.k.c.c.c.;XqXeXrXeXqX8X:X&X&X#X+Xv.c.v.c.l.c.l.l.c.l.c.c.c.c.c.l.c.m.M.n.v.v.v.v.v.c.v.v.v.v.v.v.",
"k.k.k.k.k.k.k.k.k.k.k.k.k.k.l.x.&XqXeXrXqXqX:X7X:X&X+X Xv.l.c.c.c.l.l.l.l.l.l.l.c.v.>X@X2Xv.M.M.2X2Xv.v.v.c.M.v.v.v.x.v.",
"k.k.k.j.k.k.k.k.k.h.k.k.k.x.x.x.2XqXrXrXqX9X;X4X:X3X@XM.c.n.k.c.l.l.l.l.l.l.l.v.2X,X4X9X0X5X1X8XqX&X>Xv.M.M.v.v.v.v.v.v.",
"k.j.k.j.j.h.j.j.j.j.j.j.k.k. X X3X:XqXeX9X8X&X#X3X4X.Xv.c.c.v.>XXX.Xz.v.v.z.4X6XqX0XqXqXwXwX0X0XqXqX&XM.v.v.v.v.v.v.c.v.",
"j.j.j.j.h.j.h.j.j.j.k.k.k.x.+X;X#X3XqX7X4X3X2X2X+X2Xv.m.c.>X3X4X8X5X3X4X3X4X0XwXrXrXeXwXwXrXwXwX:X9X7X2X>Xv.v.M.v.v.c.v.",
"h.h.h.h.h.h.h.j.j.j.k.k.c. X%X+X+X2X2X2X,Xv..X.XM.v.m.v.M.2X7X:X9X6X8X9X9X0XwXwXrXwXrXeXwXrXrXwX7X9XqX7X&X3X2XM.v.v.c.c.",
"h.h.h.y.h.h.h.h.h.j.b.k.v.&X7X#XM.M.v.M.2X3Xv.n.c.M.v.4X2X8X9X0X0X9X0XwXwXrXrXrXrXrXwXwXwXwX0X1X4X9X9X0X9X5XXX}.>XM.>XM.",
"y.h.f.h.h.h.h.j.b.b.l.n.>X4X7X2Xv.v.M.M.3X4X2Xv.n.v.>X8X4XqXeX0X0X0XwXwXrXrXrXwXwXwXwXwXwXwX9X6X4X9X0XwX0X9X8X9X9X5X4X,X",
"y.y.f.h.h.h.b.j.k.n.v.2X2X4X;X4XM.v.M.2X4X&X3X2XM.x.7X8X5XwXeXeXrXrXrXrXrXwXrXrXwXwXwXwX0X9X9X9X9X0X0X0XwXeXwX0X9X8X9X3X",
"y.y.y.y.b.b.n.k.n.v.#X3X4X4X:X4X3X>X+X4X4X&X3X3X3X2X7XqX9XrXrXrXrXrXrXrXrXrXwXwXwXwXwXwX0X9X9X9X8X9X0X0X0X0X9X4X4X#X5X5X",
"y.h.b.n.n.>XM.>Xm.M.2X4X4X7X7X;X4X4X4X4X&X4X4X4X7X8XqX0X0XrXrXrXrXwXwXrXwX0X0X0XwX0X0X9X9X9X0X9X8X9X0X9X9X8X1X>X}.XXXX@X",
"y.h.h.b.v.2X3X3X>X2X3X4X4X7X4X4X4X4X7X7X7X&X3X3X9X9XeXeXeXrXrXrXrXrXrXwXwX8X8X8X9X9X9X6X6X6X9X9X9X9X9X9X8X5X<XM.M.M..XM.",
"y.h.h.n.2X3X4X4X4X4X4X4X&X4X%X4X4X4X;X7X4X4X2X2X5X7X8XeXrXrXrXrXrXrXwX0X9X6X5X6X5X5X6X6X6X5X6X9X8X8X9XwX0X6X,Xv.M.m.>X>X",
"y.y.b.M.2X2X3X7X&X3X3X3X#XG.T.oX4X4X4X7X4X3X2X2X2X4X5X0XrX0X0X0X0X0X0X9X8X6X6X6X6X1X4X1X5X5X5X6X8X9X0XwXwX0X8X5X,X>XXX>X",
"y.y.n.M.2X2X4X&X5X4X4XXX2X=.o.4X4X3X4X4X4X3X,X<X3X3X4X4X8X7X8X9X9X9X9X9X9X9X6X6X5X5X5X5X4X5X1X6X9X0X0XwXwXwXwX0X0X5X,XM.",
"f.g.n.M.M.3X3X4X5X5X4XXXC.o.o.OX3X3X3X3X3X<X,X,X2X3X3X4X7X9X9X9X8X8X8X8X8X6X5X5X1X<X5X5X4X<X5X6X9X9X9X9XwXwXwXwX0X5XM.g.",
"f.b.n.M.2X2X4X7X5X5X4XH.B.o.B.<X3X,X,X2X<X,X,X,X2X2X3X4X5X9X9X9X9X8X6X6X6X6X5X5X1X5X5X1X<X4X1X1X1X6X6X8X9X9X9X0X6Xs.g.g.",
"y.n.n.2X3X4X4X4X$X5X5XS.B.B.o.#X,X,X,X,X,X,X>X,X,X2X2X4X5X6X6X9X9X6X5X1X5X5X5X5X5X4X<X<X<X<X<X<X1X1X<X/.1X5X9X6X<Xg.g.f.",
"a.n.M.>X2X3X2X3XOX5X5XC.B.B.$.,X,X>X,X>X>X>X>X>X,X2X3X5X4X5X8X9X9X6X4X5X6X1X1X1X<X<X/.1X,X,X,X(.|.<X(.u.1X9X6X<Xg.g.7.f.",
"s.M.>X>XM.M.2X<X4X5X4XOXV.B.Y.<X>X>X,X>X>X>X>X<X,X2X3X4X5X5X5X*X5X<X6X9X9X1X1X1X5X(.|.,X,X,X,XR.>X}.q.s.9XwX1X,Xt._ t.6.",
"M.>X>Xs.M.>X|.oX5X7X5XoXH.4X/.).}.>X,X,X,X,X>X,X<X2X<X4XoX5XoXC.<X<X9X9X5X1X~.1X<XL.,X,X>X,X(.!.>Xe.u.,X9X9X1Xs.` _ C 5.",
"2X2X,X!.,X(.W.5X7X6X7XH.W.W./.,X>X>X,X>Xs.}.,X>X,X,X,X/.|.4XZ.o.,X6X9X1X1X~./.<X~.L.,X,X>X>Xe.!.I.w.}.<X0X9X5X0.^ ~ 6.d.",
"(.,X(.^.|.u.oX5X6X8X[.J.`.1X<X,XU.}.U.u.>X,X,X,X>X,X,XI.XX4.o.B.4X9X5X<XY.I.<X<XI.!.,X,X,X!.L.U.w.!.,X4X9X9XU.` _ r.f.8.",
"2X2Xu.(.~.Y.3X4X6X6X'.[.-X4X<X/.~.I.U.,X,X^.}.,X>X,X(.u.}.>.o.B.<X3X2XR.L.(.,X}.w.!.1.,X^.I.I.I.e.,XU.Q.6X*Xq.9.r.f.d.5.",
"s.}.w.(.I.{.3X1X-X*X].:X5X4X|.I.I.Y.<XXXI.,X}.>X,X,XU.u.u.i.1.U.>X>X(.I.I.!.w.q.q.2.W q.q.w.R.e.!.,X;.,.u.9.) 6.d.d.r.V ",
"m.p.w.R.I.).oX*X=X].=X9X5X4X~.I.I.|.<XY.(.(.i.>X}.(.e.e.w.4.i.!.>X>XI.Y.I.e.q.q.9.*.h ( 9.q.I.I.|.|.I U 7.~ ~ 6.d.d.C V ",
"7.7.0.q.A.Y._.*X].].-X6X=X`.Y.Y.W.OXR.I.E.1.,X<Xi.3.w.w.s.;.q.z.>Xu.L.L.I.L.w.<.] ( / ' ' 9.q.Y.!.' ` 7._ ~ A 6.5.V V V ",
"_ ^ ( #.U.Y.oX`.'.[.6X=X[.`.W.W.|./.I.I.Z.<X,XI.u.%.e.u.i.3.w.>Xs.w.w.L.w.L.w.*.] ( L 7.` ' 9.U.9.` K ~ S D A Z V V V V ",
"~ G ( 0.q.G.`.`.T.].[.].[.[._._.OXI.I.-.U./.Y.L.,. .e.(.i.w.s.i.u.e.e.w.q.<.*.( ( ( 0.7.` ` 9.q.' ) N ~ Z Z C C V C C V ",
"M F ' #.&.I.W.`.H.'.].[.[.[.`._.~.I.C.3.L.I.W.A.2.&.w.}.1.u.u.w.u.q.<.&.#.#.] ] L @.r._ _ ` 9.' ` ~ B Z Z V b v B n B b ",
"N G +.#.<.w.Q.`.K.'.].=X=X[.].`.H.P.C.I.L.w.P.T.A.:.q.3.&.w.I.i.A.1.1.>.q.>.;.>.<.a./ ) ` / ) ) ~ A v V N 7 u y b b b b ",
"( *.$.&.u.w./.Q.K.'.*X=X[.].W.T.V.S.A.A.Z.w.,.A.A.q.>.;.=.u.I.F.F.Z.A.P.3.1.F.D.i.@.K ) K F ! ~ A A u p , u u 7 m b b b ",
"0.<.;.$.u.w.!.D.H.'.[.[.].[.`.A.S.S.C.Z.A.A.Z.A.U.w.$.-.D.P.F.G.F.A.P.D.F.D.F.4.>.@.! K F G ! ~ ~ N u * p u q 7 q m b b ",
"1.1.1.1.1.1.F.T.H.P.oXT.[.[.].P.V.G.A.Z.A.G.A.I.L.1.$.C.D.P.G.F.D.G.D.C.O.C.O.1.q.#.H h L h M A V N 6 q b y 7 7 q b b b ",
"$.1.>.,.%.4.i.G.S.Q.J.H.oXoXW.o.C.G.G.P.G.G.E.F.Y.D.C.P.D.D.F.D.F.Z.S.C.N.O.O.2.2.;.I H U / 5.D m m # v b i 3 3 q 3 i b ",
"+.( ] &.} &.1.1.-.s.C.S.Y.P.=.o.-.A.A.G.G.G.F.E.^.C.S.G.D.G.G.F.C.C.S.G.N...O.;.$.$.| | F r D m m q $ i v n q 3 i q q n ",
"m K L U W X.>.>.$.:.#.o.>.o.O.O.1.1.A.Z.A.A.Z.P.F.F.B.D.S.F.S.=.C.C.C.C.D.-.[ | &.#.J / L w a n b 3 + b 9 v b q b b i 9 ",
"0 d L Q | } >.&.| #.#.W E ..B.=.A.1.1.1.=.-.=.Z.Z.F.C.C.-.O.;.F.Z.F.Z.=...;.x z >.I K K H 4 r v 3 < @ i 9 q q q q q 9 9 ",
"p t s F ( I Q >.Q ] Q Y E B.B.B.Z.Z.$.o.B.Z.o.Z.F.F.-.D...O.;.1.1.-.[ { o.E #.I Q T a G N = 0 2 2 < $ : , 7 0 7 7 7 3 q ",
"q u a d H J T Q W U Y E %.Z.B.C.B. .%.B.B.C.Z.A.F.;.O.O.;.o.{ | [ R } $.o.W s | J F t t 0 > 7 ; : X X 2 7 q q 7 3 q q 3 ",
"2 q q 8 0 t h I R T Q X.B.B.o.o.E o.B.B.%.=.Z.-.O.o.{ ..,.$.} x &.>.$.} X.Q j x z t 0 8 8 8 * $ % ; X , q q 3 3 < 3 3 9 ",
", < 2 9 7 9 g P Y P  ...%.....E X.X.X.%.Z.{ ,.X.[ [ I #.| | z I P >.W Y E h h l g 4 a > 2 > % $ 3 ; o : 3 < < , , < , 7 ",
"; : < < 7 2 8 k I c R E E E E E  . . .o.%. . .R x k t k J z k P Y T z z k s 8 s = = 9 6 8 = $ = 9 < @ % , < : : : , : : ",
"; ; : ; , , 5 t P c Y Y R R E E E E R E  .R z z j t e s s s s E Y j l j t w 6 8 = $ 8 , * = $ o ; % @ ; : ; * ; ; ; ; ; ",
"+ ; * ; > > = 8 j e f f g f l c R I g g z j f f 6 = = 1 1 1 w s g e w e e 6 > , < $ > = o o o o ; < @ % * % % * % * # + ",
"+ + * % % > $ % 8 % % $ ; , 4 f l t 5 > > > = ; & & & - : - 1 6 8 w 4 4 4 > $ = * o : $ o o o o * < @ * % % % % @ + X + ",
"+ O + + + # @ % % $ $ $ o * % = 5 6 4 > = * @ + O @ @ # # # = = 4 > = 1 $ * X X X X X $ o X . X % ; + $ o $ % + + . O . ",
"+ + O O + + + + + + + X X @ o + @ X X $ @ o X # . + + + @ @ # & * * @ o X * X X X X X @ . . . . O X X + @ $ + . . . .   ",
"  O   O O   O   . . X . . X X . .       . . . X . O O O O O O o o o o X X X X . X . X   . . . . . . . X X X . . .       ",
"                  . . . . .   .         . . . . . . . O . O . o o . X X X . . .     X   .       .     . .   .           "
};
