/* XPM */
static char *_9353_a4e1a93ad9a94dbf15e30731d975f3a8822429b77c0914502072890e4ff007ae[] = {
/* columns rows colors chars-per-pixel */
"64 64 256 2 ",
"   c black",
".  c magenta",
"X  c magenta",
"o  c magenta",
"O  c magenta",
"+  c magenta",
"@  c magenta",
"#  c magenta",
"$  c magenta",
"%  c magenta",
"&  c magenta",
"*  c magenta",
"=  c magenta",
"-  c magenta",
";  c magenta",
":  c magenta",
">  c magenta",
",  c magenta",
"<  c magenta",
"1  c magenta",
"2  c magenta",
"3  c magenta",
"4  c magenta",
"5  c magenta",
"6  c magenta",
"7  c magenta",
"8  c magenta",
"9  c magenta",
"0  c magenta",
"q  c magenta",
"w  c magenta",
"e  c magenta",
"r  c #F4CAA7",
"t  c #E3B490",
"y  c #CF9876",
"u  c #C18564",
"i  c #B47150",
"p  c #A56446",
"a  c #985D3F",
"s  c #8C5637",
"d  c #814F30",
"f  c #7A4B2B",
"g  c #704628",
"h  c #674027",
"j  c #5B4326",
"k  c #4F3F2B",
"l  c #423629",
"z  c #363228",
"x  c #E8C4C4",
"c  c #DCB1B1",
"v  c #CC9D9D",
"b  c #BC8A8A",
"n  c #AF7A7A",
"m  c #9B696A",
"M  c #8F5E61",
"N  c #7E5159",
"B  c #6D4858",
"V  c #654455",
"C  c #563D4D",
"Z  c #4B3747",
"A  c #43333F",
"S  c #3F2F38",
"D  c #382D34",
"F  c #2E2C2E",
"G  c #F5D4AC",
"H  c #E5C196",
"J  c #D5AE80",
"K  c #C49A69",
"L  c #B78C58",
"P  c #AD7F4E",
"I  c #A0764A",
"U  c #976E45",
"Y  c #866741",
"T  c #7B5C3C",
"R  c #6D5536",
"E  c #604C33",
"W  c #53472C",
"Q  c #453F2A",
"!  c #3D3626",
"~  c #322D22",
"^  c #CDCDE0",
"/  c #BCBCC7",
"(  c #A5A5AE",
")  c #91919F",
"_  c #878795",
"`  c #7A7A89",
"'  c #72727F",
"]  c #676774",
"[  c #5E5E6D",
"{  c #555560",
"}  c #4B4B55",
"|  c #444450",
" . c #3D3D43",
".. c #35353B",
"X. c #303032",
"o. c #2C2C2D",
"O. c #B0CDFF",
"+. c #93B9F4",
"@. c #7BA4E6",
"#. c #6898D9",
"$. c #5789CD",
"%. c #447CC0",
"&. c #4470B3",
"*. c #3E69A7",
"=. c #37619A",
"-. c #315A8E",
";. c #2D527A",
":. c #334D66",
">. c #344557",
",. c #323E49",
"<. c #2F3B3C",
"1. c #2C3031",
"2. c gainsboro",
"3. c #C5C5C5",
"4. c #B9B9B9",
"5. c #AEAEAE",
"6. c #A2A2A2",
"7. c #939393",
"8. c #848484",
"9. c #777777",
"0. c gray43",
"q. c gray39",
"w. c gray34",
"e. c #4E4E4E",
"r. c #434343",
"t. c #3A3A3A",
"y. c gray20",
"u. c #2C2C2C",
"i. c #B6DAE3",
"p. c #9ECACA",
"a. c #86BBBB",
"s. c #6DAAAA",
"d. c #579A9A",
"f. c #4D8E8E",
"g. c #468787",
"h. c #3E7C7C",
"j. c #367070",
"k. c #2E6767",
"l. c #275B5B",
"z. c #285353",
"x. c #2D4848",
"c. c #2F3F3F",
"v. c #323737",
"b. c #2D3030",
"n. c #FFF667",
"m. c #F1EE2D",
"M. c #E2DC00",
"N. c #D4CB00",
"B. c #C5B900",
"V. c #B7A800",
"C. c #A89600",
"Z. c #9A8500",
"A. c #8B7300",
"S. c #7F6A04",
"D. c #746107",
"F. c #68570B",
"G. c #5D4E0E",
"H. c #514512",
"J. c #453C15",
"K. c #3A3319",
"L. c #CADDC4",
"P. c #AFC8A8",
"I. c #94B08D",
"U. c #7B9C76",
"Y. c #6B906D",
"T. c #5D825E",
"R. c #527456",
"E. c #4D6E4E",
"W. c #446343",
"Q. c #3D5935",
"!. c #344D2D",
"~. c #2E4425",
"^. c #273C27",
"/. c #1E371E",
"(. c #223322",
"). c #282F28",
"_. c #B36B53",
"`. c #AF5F4B",
"'. c #AF5743",
"]. c #A34F3B",
"[. c #9B4B33",
"{. c #93472F",
"}. c #9B5B2F",
"|. c #8B532B",
" X c #7F4B27",
".X c #734323",
"XX c #633F1F",
"oX c #57371B",
"OX c #4B2F17",
"+X c #3B2713",
"@X c #2F1F0F",
"#X c #23170B",
"$X c #D8E3A2",
"%X c #B9CD7F",
"&X c #9FB765",
"*X c #82A24D",
"=X c #6D9242",
"-X c #65893C",
";X c #5C7F36",
":X c #547630",
">X c #4C6C2A",
",X c #416225",
"<X c #355722",
"1X c #334B23",
"2X c #2D4025",
"3X c #2B3827",
"4X c #263328",
"5X c #2B2E2D",
"6X c #B3734F",
"7X c #AF6F4B",
"8X c #AB6B47",
"9X c #A76743",
"0X c #9F633F",
"qX c #9B5F3B",
"wX c #975B37",
"eX c #8F5733",
"rX c #282828",
"tX c gray15",
"yX c #232323",
"uX c gray12",
"iX c #1B1B1B",
"pX c gray9",
"aX c #131313",
"sX c gray6",
"dX c #FEFFC7",
"fX c #FEF5B9",
"gX c #FEEBAA",
"hX c #FEE19C",
"jX c #FFD78D",
"kX c #FFCD7F",
"lX c #FFC370",
"zX c #FFB962",
"xX c #FFAF53",
"cX c #F1A736",
"vX c #EA9B32",
"bX c #E28F2E",
"nX c #DB832B",
"mX c #D47727",
"MX c #CD6B23",
"NX c #C65F1F",
"BX c #BE541B",
"VX c #B74817",
"CX c #B03C13",
"ZX c #A9300F",
"AX c #A2240C",
"SX c #9A1808",
"DX c #930C04",
"FX c #821600",
"GX c #6F2200",
"HX c #662101",
"JX c #5C2103",
"KX c #53200A",
"LX c #4A271B",
"PX c #412921",
"IX c #392B27",
"UX c #302D2D",
/* pixels */
"pXuXy.8.o.q.8.o.q.q.rXq.q.q.rXtXuXiXpXiXo.w.q.9.q.8.8.b.0.' 0.q.8.] q.w.w.uXyXrXy.o.uXw.o.6.8.8.8.8.8.q.w.w.aXsXaXuXtXuX8.( ( 6.",
"w. .( ( 3.( 3.4.( 6.4.3.3.3.( 8.q.r.yXy.q.8.( ( 4.( 4.4.3.4.3.5.4.4.( 6.7.9.6.0.0.w.q.w.4.4.3.4.4.4.3.3.( 7.q.yXiXpXuXq.8.6.4.8.",
"..8.3.3.3.3.3.3.3.3.3.3.3.3.3.3.3.` | } ( 5.4.3.4.3.3.4.3.3.3.3.3.3.3.( 3.4.3.3.3.8.q.w.( 3.3.3.3.3.3.3.3.4.4.) t.uX .' 4.4.3.6.",
"' 6.4.( 3.3.4.( ( 3.3.3.3.3.3.3.L._ t.) ( 4.4.4.( 4.3.3.3.3.3.3.4.3.3.3.3.3.3.3.L.5.r.w.7.4.3.( 4.7.3.3.4.3.3./ 9.rX{ ( 3.3.L._ ",
"| 7.( ) 4.3.` ' ' 3.( ( 3.3.3.3.3.4.rX8.5.3.) ( 6.7.6.q.7.4.3.( 3.3.3.3.3.3.3.3.3.( w.uX0.4.3.0.8.t.( ) ( ( 3.3.9.rXyX' 3.3.L.4.",
"| 0.' 7.4.` 0.` ' 3.) 7.3.( 4.3.3.3.q.y.( 4.5.3.( 7.{ { { ( 4.4.3.3.3.3.3.3.3.3.3.3.q.uXy.6.( ] t.} 3.[ } 7.5.3.9.tXpXq.3.3.3.4.",
" . .} ' ( q.] { } ( 9.7.3.7.( 3.3.3.5.y.y.4.( 7.' q.' ] 0.4.3.) ( 4.5.3.3.3.3.3.3.3._ uXw.0.7.r.A } 6.] } 0.) 3.0.y.uXuX( 3.3.' ",
"v.r.} | 7.{ [ { | ) | 0.4.9.5.4.3.3.5.rXrX6.8.| q._ ) 8.' 4.4.q.{ 7.( 4.3.4.5.3.3.3.' yXuXq.| | r. ._ q.| | ] 5.0.y...t.) ( ( ] ",
"rXu.c.r.7.q.' ' q.[ q.9.5.9._ 4.3.4.( o.o.7.| } ] 7.6.) ' 0.4.] | r.( 3.4.5._ 4.3.3.( y.pXiXrXX.rXo.0.r.y.tXb._ | uXt.w._ ( ( ] ",
"rXpXuXt.} ] _ _ ` 9.9.' 7.0.7.7._ ( q.| } ( q.} w.` _ _ 0.| 4.' { } ( 3._ ( ( 3.3.3.)  .iXpXw.8.w.uXq.tXuXiXuXuXuXiXrX{ ` ( 6.8.",
"{ uXpXrXr.0.9.' 0.] q.0.q.w.[ ` ` 0.0.{ ' ( 9.q.r.[ 0.q.| t.7.' ] q.( 4.) ( ) 3.3.3.) r.yX8.( 4.( 7.0.) 0.0.| r.o.pXrX| ' ` ( 7.",
"] o.pXo. .} } e.} } | | r...} ' { q.X.| { 0.9.9.[ w.w.| { { ( ' ` ' ) ( ' 7.7.3.3.3.( r.8.( 4.3.3.4.4.3.3.4.4.` | uXiXr.q.` _ ) ",
"} w.iXq.tXrXX.q.b.D rXrXq.q. .[  .uXpXiXuXv. .{ [ } e.{ ' ` ) 9.' 0.) 7.{ { q.3.3.3.) q.8.( 3.3.3.3.3.3.3.3.3.3.] yXpXX.{ ] ] [ ",
"0.q.6.8.q.q.8.8.6.8.8.6.6.8.q.| } 7.w.uXpXpXuXrXt.} w.0.9.' ' [ e.e.9.9.r. .| ( 3.4.) rXq.4.3.3.3.4.4.3.3.3.3.3.4. .iXuXF q.] 0.",
"4.( 3.4.4.) ( 4.3.4.5.4.5.5.4.3.3.3.4.4.4.q.rXuXiXuXt.w.q.{ { } r.....0. .| { ` 4.4.{ rXq.3.3.3.4.) 3.3.( 4.3.3.3.q.uXpXq.( ' 5.",
"3.3.3.L.3.3.4.3.3.3.3.3.3.3.3.3.3.3.3.3.3.3.(  .uXpXiX .w.{ } | | <.<.<.c.| } | ( _ ' uX8.3.3.3.` 0.4.3.4.4.3.3.3.( tXiX7.p.3.3.",
"4.3.3.4.( 4.7.6.3.3.4._ 8.9.5.4.3.3.3.3.3.3.3.3.8.uXpXtXt.b.q.y.X.rXrXo.o.o.y.y.7.0.q.pXuX3.4.' q.w.9.3.( 0.4.3.3.4. .q.3.3.3.3.",
"4.4.6.) ` _ _ 6.3.3.4.8.| r.' 3.3.3.3.3.3.3.3.3.3.9.uXiXuXuXw.8.q.q.q.q.q.rXrXo.] ' q.pXpX3.( ] 0.} r.3.9.q.) 3.3.3.r.4.3.3.3.4.",
"8.3.6.6.8.] ' _ ) 3.4.) q. .b.5.3.4.3.3.3.3.3.3.3._ v.o.e.8.9.4.3.4.3.3.3.4.( ) 8.7.` uXe.3...w.q.} } 4.r.w.9.( 3.5.t.( 3.3.3.( ",
"6.3.( 6.' ' ] ] _ ( ( ` q.t.tX8.3.( 4.4.3.3.4.3.3.) q.r.0.6.( 4.3.3.3.3.3.3.3.3.3.3.( r.uX4.r.r.| | { ( 0.0.9.4.3.( t.4.3.3.3.8.",
"( 3.4.( ` q.{ q.] 4._ ' q.|  .8.3.0.` ( 4.3.( 4.4.3.w.y.] 8.8.5.3._ ( 3.3.3.3.3.3.3.( ` q.7. .y.y. .{ ( _ _ 8.4.L.( rX4.3.3.4.7.",
"( 3.) _ ] { e.} { 7.9.' ] { { } 4.{ ] ' 4.4.) 7.3.4.6.c.[ 8._ 6.3.} } ' 6.3.5.4.3.3.) ' 0.7.[  .rXo.| ( _ _ ` ) 3.8.tX6.3.3.6.8.",
"5.3.' ' q.| } 0.q.0.w.0.9.] 0.` 4.] ] 8.7.) 6.( 4.3.6.] q.0.` ] ( | | { ( 7.8.5.3.3.) b.8.( ] | rXuX .6.' ` 0.` ( ) b.8.3.3.) q.",
"q.( ' 9.{ | ] 9.] ) e.0.` ` 8._ 5.` 9.8._ ` ( 4.3.4.8.o.} ' 0.7.) w.{ ] ( } b.8.7.4.' w.8.) ] } y.yX .7.9.8.' ' 0.` ..q.3.4.9.' ",
"q.( ] q.w.| { ] [ 7.} ` ` ` 8.8.7.' 8._ 9.] _ 4.4.( 8.o.q.8.` ) _ q.q.[ [ r.rXiXrX0.} w.5.' {  .u.rX| 0.9.0.0.[ { 0.rXq.4.( 8.0.",
"q.8.q.|  .r.] 9.{ 0.0._ 8.` _ 0.w.q.0.0.q.r.} 8.6.) w.tX{ 0.9.7.0.} |  . .y.tXiXuXq.r.8.5.5.y.w.pXe.rX .e. .t.t. .q.pXw.4.8.} } ",
"] _ } |  .} 9.' } rX{ 7._ ` '  .rX .| r.y.w.q.0.` ' uXpXuX .e.0.A v.rXuXtXq.o._ 0.( 4.( 6.4.6.5.6.6.8.q.tXuXrX....w.pXe.( ` w.{ ",
"9.` e.| { { [ ] } rXo.q.8._ ] v.y. .o.uXq.q.q.' 8.8.X.8.tXX.0.t.tXiXpXpXw.0.4.( 4.3.3.3.3.3.4.9.6.( ( ) 8.| { 0.' e.uXpX8.e.e.] ",
"} 9.{ ' ' 0.' ` ` { .. .0._ ' e.[ { o.uX' 7.( 4.3.3.3.( 4.( 3.4.q.y.iXiX] ) 3.3.3.3.3.3.3.3.3.3.( 3.3.3.4.( ( 3.3._ ..iXe.uXt.} ",
"tXo.| { q.q.{ [ 0.8.| ..q.8.] r.] ] y.q.4.3.3.3.3.L.3.3.3.3.3.3.3.7.b.tX .4.3.3.3.( 3.3.3.4.3.3.3.4.3.3.3.3.6.3.3.3.` y.w.aXpXuX",
"aXaXiXuXrXo.uXtXo.| t.X. .} t.tX| r.yX6.4.3.3.3.3.3.3.3.4.5.3.3.3.4.0.tX0.3.3.3.3.( 4.4.) 4.4.4.4.3.4.3.4.3.3.5._ 4.4.] q.iXaXaX",
"aXaXaXpXw.iXiXe.w.w.w.w.w.q.q.rXrXtX8.9.4.3.4.4.4._ 8.` 8.) ) 4.3.4.6.uXq.4.3.3.4.( 4.( ] ` 6.( 5.3._ 0.7.3.3.) 6.4.3.3.9. .u.iX",
"uXuXy.0.( ( 7.0.0.0.0.' 7.( ( 4.' 9.w.9.9.( 6.8._ ' 0.{ [ ] _ ) 5.3.' rX6.( 4.4.4.) ) ( e.q.0.9.6.9.r.| { 3.3.3.) ( ( 3.3.( 0.y.",
"y.t.( 3.x 3.3.3.3.3.3.4.4.4.4.3.3.( ] w.aXe.6. .{ ] 8.' 0.0.[ 9.) 9.y.iXq.( 3.( ) 9. .( t.r.} { y.tXb.{ ] ) 4.) ] ) _ _ ( 7.0.X.",
"..7.3.3.3.3.3.3.3.3.3.3.3.5.3.3.3.4.7.y.iXw.6.e.} w.w.w.| { q. . .v.uXpXiX8.3.5.7.0.o.7.| { q.} y.uXr.] ` ) _ ] w.} { { ( ( ..u.",
"q.5.3.3.3.3.3.3.3.3.3.3.3.3.( 3.3.3.( { tXpXy.w.e.rXuXuXrXv. .r. .r.y.rXb.o.6.6.w.q.b.7.{ 0.] { t.<.t.} q.) _ 0.{ } { } 9.) X.iX",
"8.) 4.3.4.3.3.3.4.( ( 3.3.4.3.5.3.3.3._ | uXiXuXy.rXtXt.9.6._ 4.5.5.7.' ) 9.5.( 8.iXpX8.y.} }  .v.v. .y.r.[ _ 8.} w.| t.q._ uXaX",
"q.4.3.3.4.( 3.4.3.[ ' ) _ 4.4.3.3.3.3.3._ e.uXpXiX .q.) 3.3.3.3.3.3.3.3.3.3.3.4._ ..uXe.aXuX..q.uXuXt.y.y.| r.t.t...o.uXuXq.uXaX",
"rX4.4.5.' ] ` 4.6.y.{ ' 0.( 4.4.3.3.3.3.3.6.q.yXiXb._ 4.3.3.3.3.3.3.3.3.3.3.3.3.( ' | uXaXe.8.w.w.8.8._ 8.7.8.8.q...y.rXy.r.rXpX",
"q.3.5.8.q.[ { 3.8.uX .' ' ) 5.3.8.3.4.3.3.3.( { yXq.7.3.3.4.4.3.3.4.3.3.3.3.3.3.4.( ' r.uXq.6.7.( 4.( 3.4.3.4.5.( ) 7.{ ' { y.iX",
"8.4.4.} } } q.x r.b.r.' ` } 8.4.rX8.( ( 3.4.L.8.o.tX7.3.3.3.3.3.4.4.3.3.3.3.3.3.3.( ` w.y.7.4.3.3.4.( 4.3.3.3.3.3.3.3.4.) 8. .uX",
"q.( 8.}  .t.w.4.} ..} ] [ r...4...uXq.( ( 4./ 8.b.tX4.3.3.( 3.4.` ) ( 3.3.4.3.3.3.4.` { rX4.4.( 3.4.6.5.6.3.6.5.3.3.3.3.3.4.q.uX",
"w.7.0.t. .t. .( } y.| { {  .r.( e.t.0.5.5.( ) 0.yXuX4.3.6.( 3.7.] 8.8.4.5.q.( 3.3.3.(  .w.4.4.( 3.9.t.] ] ( 0.) 4.3.3.3.3.3.` tX",
"q._ 0. .} r.| _ [  .} ] |  . .5.} } 9.5.4.9.] } uXtX_ 3.8.7.4.9. . .0.( ( ' 7.7.3.3._  .8.5.5.9.( [ [ } } ( | 0.' ( 3.( 3.3.4.tX",
"b.) ] ' ' ] 0.7.0.] 8.` ' } | 7.w.w.w.8.5. .{ { uXrX} 3.b.q.( | } q.{ ` ( } 6.( 3.4.)  .7.( ( q.( ' ' ] } 0.} 0.` ' 6.) 3.3.3.tX",
"uX` ` _ ` ` 9.q.q.0.8.6._ 9.0.9.} { q.8.) | ' [ yXy.0.4.[ [ ( } { 0.9._ ) } ) 4.3.3.) X.) 4.7.{ ' ' 0.[ { 9.] 8.` q.) w.3.3.4.w.",
"pXb.} ] ' ' ' { e...| { } w.0.7.0.' ` ] 7...] ] yXrX} ( ' 0.7. .e.q.] w.6.q.e.0.4.3.' rXt.) q.[ ] ] w.| | ` 0.` ' ' 0.y.5.3.( w.",
"aXtX} ] ' ] q.|  . .y.y.o...q.0.9.` ` ] 0. .0.q.uXiX .` 0.] )  .e.0.] q.6.q.} t.( 3.9.tXuX| |  .| |  .rXu.r.| { w. .b.w.y.( 9.uX",
"aXrXt.q.[ { [ [ [ ' q.e.| } ] 9.9.` ` ] 0.b.{ | uXiXy.} 0.` ` | ] ] 0.{ } e.| r.4.( ' yXpXuXuXw.w.tXrXuXuXyXo... .rXw.w.q.0. .uX",
"pXaXrX .| | 0.` ` ) _ ' 0.' 0.9.0.' ] { y.yX<.b.pXuX| { ' ' { [ [ [ } t.y.rXo.{ _ ( q.y.o.7.) 7.6.5.7.( ( ( q.' 8.' ] 7.( ) ' ..",
"uXaXaXtXX. .{ { [ [ ] { r.| t.0.0.0.} t.u.uXuXuXaXuX .{ { [ } } }  . .y.y.y.t.' ( _ } ..6.3.3.3.3.3.3.3.3.3.3.3.4.4.4.4.3.3.4.[ ",
"e.uXpXpXpXtXuXw.w.6.8.6.w.w.w.q.8.8.7.4.0. .7.q.pXpX..| A  . . .t.t.t.r.e.q.] _ ( _ | 0.3.3.3.3.3.3.3.3.3.3.3.3.3.3.4.3.3.3.4.( ",
"( q.e.tXpXuXq.8.5.4.3.( 6.5.( ( 4.( 4.3.3.( ) ) w.aXiXX.<.y.r. .t. .y.| 9.9.0.' ) ` t.` 3.3.3.3.3.4.3.4.( 3.3.3.( ) 3.( 4.3.3.3.",
"4.4.4.w.o.0.( 3.3.3.3.3.3.3.3.3.3.3.3.L.3.3.3._ 6.aXaXrXb.X.c.} r. ...r.{ 0.' 0.[ r.rX0.5.3.( _ 4.7.{ ) ) 3.4.) ) _ ( ' 7.3.4.4.",
"( 4.3.( v.7.3.3.3.3.3.3.3.3.3.3.3.3.3.3.3.3.3.3.( e.aXuXtXiXrXX...y.rXtXy.r.e.w.| rXpXw.8.6._ | 6.o.0.0.' ( ( } e. .0.0.q.5.6.7.",
"7.( 3.3.q.9.3.( 3.3.3.4.4.3.3.3.3.3.4.3.3.3.3.3.5.uXaXaXaXpXiX8.yXyXuXiXpXiXo.y.y.pXaXe.0.8.0.[ 7...{ 0.0.( 7.} e.t.t. .q.4.' ` ",
"] 7.3.4.5.3.3.3.7.4.3.) 6.7.7.4.3.3.3.3.3.3.3.4.) 7.uXtXw.4.( 4.4.4.6.7.8.yX..y.y.uXpXe.w.' [ { ' | q.] 0.7.9.[ { 0.y.<.| ' q.] ",
"| 0.8.9.8.3.3.4._ ( 3.) _ e.8.8.3.( 3.3.3.3.3.3.3.9.r.` 3.3.3.4.3.3.3.4.( 4.3.4._ q.y.pXe.iXo.X.uXtX..r. .0.7.( 4.5.8.q.rXq.t.r.",
"w.q.q.q.w.3.3.( 0.0.4.] { q.7._ 5.7.) 4.4.3.3.4.3.7.} ( 3.3.3.5.3.4.4.( 3.3.3.3.3.( 0.y.pXe.w.uXuXyXq.rXrX8.6.4.3.4.5.5.6.8.uXw.",
"6.7.( 4.8.3.( 7.' 8.5.' ] ] ] { ( _ ) ` _ 4.( ( ( _ { ` ( 3.7.4.5.{ ' _ ( 4.3.3.3.3.` | q.q.0.) 7.( ( ( ( 5.3.3.3.3.3.3.3.6.( 6.",
"4.3.L.4.6.3.( ) ` _ ( 0.0.{ } { ) ] 9._ ` { 6.q.( q.q.7.( 4.7.6.8.| [ w.6.6.6. .4.5.' | X.0.6.( 4.3.3.3.3.3.3.4.4.4.3.3.3.3.3.3.",
"3.4.L.4.5.7.( ) _ ` _ { w.q.{ [ 7.0.' ) ` { ) | 6..._ 7.( ]  .q.8.r.q.{ 0._ t.} _ _ ] o.tX' 8.( ( 3.3.3.3.4.4.( ) 4.3.4.3.3.3.3.",
"( 4.6.4.5.q.8.7.0.{ 9.r.t.e.q.[ ` } ' _ _ ] 9.X.7.uX9.) ` ] | y.8.| q.[ ) 9.w.{ 0.' | iXpXb.0.9.7.( ( ) 5.( 0. .) 7._ ( 4.3.3.4.",
"8.uXw.6.w.9.q. .v.rXy.rXuXuXtXo.q.uXb.w.q.[ ' uXe.aXuX0.q.q. .q.6.t. .t.0.y. .r.r.t.rXpXaXaXpXtXt.} 9.0.rXtXrXD <.` 7.9.6.) 5.q."
};
