/* XPM */
static char *_2810_22fd3ada880c88cdc2839188824c9d5a9d58b2cf9893ddcb54ae3c3d547e5d10[] = {
/* columns rows colors chars-per-pixel */
"64 64 256 2 ",
"   c black",
".  c #0000A8",
"X  c #00A800",
"o  c #00A8A8",
"O  c #A80000",
"+  c #A800A8",
"@  c #A85400",
"#  c gray66",
"$  c gray33",
"%  c #5454FC",
"&  c #54FC54",
"*  c #54FCFC",
"=  c #FC5454",
"-  c #FC54FC",
";  c #FCFC54",
":  c gray99",
">  c #ECECEC",
",  c gainsboro",
"<  c #D0D0D0",
"1  c #C0C0C0",
"2  c #B4B4B4",
"3  c gray66",
"4  c #989898",
"5  c gray55",
"6  c #7C7C7C",
"7  c gray44",
"8  c #646464",
"9  c gray33",
"0  c #484848",
"q  c gray22",
"w  c #2C2C2C",
"e  c #202020",
"r  c #FC0000",
"t  c #EC0000",
"y  c #E00000",
"u  c #D40000",
"i  c #C80000",
"p  c #BC0000",
"a  c #B00000",
"s  c #A40000",
"d  c #980000",
"f  c #880000",
"g  c #7C0000",
"h  c #700000",
"j  c #640000",
"k  c #580000",
"l  c #4C0000",
"z  c #400000",
"x  c #FCD8D8",
"c  c #FCB8B8",
"v  c #FC9C9C",
"b  c #FC7C7C",
"n  c #FC5C5C",
"m  c #FC4040",
"M  c #FC2020",
"N  c #FC0000",
"B  c #FCA85C",
"V  c #FC9840",
"C  c #FC8820",
"Z  c #FC7800",
"A  c #E46C00",
"S  c #CC6000",
"D  c #B45400",
"F  c #9C4C00",
"G  c #FCFCD8",
"H  c #FCFCB8",
"J  c #FCFC9C",
"K  c #FCFC7C",
"L  c #FCF85C",
"P  c #FCF440",
"I  c #FCF420",
"U  c #FCF400",
"Y  c #E4D800",
"T  c #CCC400",
"R  c #B4AC00",
"E  c #9C9C00",
"W  c #848400",
"Q  c #706C00",
"!  c #585400",
"~  c #404000",
"^  c #D0FC5C",
"/  c #C4FC40",
"(  c #B4FC20",
")  c #A0FC00",
"_  c #90E400",
"`  c #80CC00",
"'  c #74B400",
"]  c #609C00",
"[  c #D8FCD8",
"{  c #BCFCB8",
"}  c #9CFC9C",
"|  c #80FC7C",
" . c #60FC5C",
".. c #40FC40",
"X. c #20FC20",
"o. c #00FC00",
"O. c #00FC00",
"+. c #00EC00",
"@. c #00E000",
"#. c #00D400",
"$. c #04C800",
"%. c #04BC00",
"&. c #04B000",
"*. c #04A400",
"=. c #049800",
"-. c #048800",
";. c #047C00",
":. c #047000",
">. c #046400",
",. c #045800",
"<. c #044C00",
"1. c #044000",
"2. c #D8FCFC",
"3. c #B8FCFC",
"4. c #9CFCFC",
"5. c #7CFCF8",
"6. c #5CFCFC",
"7. c #40FCFC",
"8. c #20FCFC",
"9. c #00FCFC",
"0. c #00E4E4",
"q. c #00CCCC",
"w. c #00B4B4",
"e. c #009C9C",
"r. c #008484",
"t. c #007070",
"y. c #005858",
"u. c #004040",
"i. c #5CBCFC",
"p. c #40B0FC",
"a. c #20A8FC",
"s. c #009CFC",
"d. c #008CE4",
"f. c #007CCC",
"g. c #006CB4",
"h. c #005C9C",
"j. c #D8D8FC",
"k. c #B8BCFC",
"l. c #9C9CFC",
"z. c #7C80FC",
"x. c #5C60FC",
"c. c #4040FC",
"v. c #2024FC",
"b. c #0004FC",
"n. c #0000FC",
"m. c #0000EC",
"M. c #0000E0",
"N. c #0000D4",
"B. c #0000C8",
"V. c #0000BC",
"C. c #0000B0",
"Z. c #0000A4",
"A. c #000098",
"S. c #000088",
"D. c #00007C",
"F. c #000070",
"G. c #000064",
"H. c #000058",
"J. c #00004C",
"K. c #000040",
"L. c #282828",
"P. c #FCE034",
"I. c #FCD424",
"U. c #FCCC18",
"Y. c #FCC008",
"T. c #FCB400",
"R. c #B420FC",
"E. c #A800FC",
"W. c #9800E4",
"Q. c #8000CC",
"!. c #7400B4",
"~. c #60009C",
"^. c #500084",
"/. c #440070",
"(. c #340058",
"). c #280040",
"_. c #FCD8FC",
"`. c #FCB8FC",
"'. c #FC9CFC",
"]. c #FC7CFC",
"[. c #FC5CFC",
"{. c #FC40FC",
"}. c #FC20FC",
"|. c #FC00FC",
" X c #E000E4",
".X c #C800CC",
"XX c #B400B4",
"oX c #9C009C",
"OX c #840084",
"+X c #6C0070",
"@X c #580058",
"#X c #400040",
"$X c #FCE8DC",
"%X c #FCE0D0",
"&X c #FCD8C4",
"*X c #FCD4BC",
"=X c #FCCCB0",
"-X c #FCC4A4",
";X c #FCBC9C",
":X c #FCB890",
">X c #FCB080",
",X c #FCA470",
"<X c #FC9C60",
"1X c #F0945C",
"2X c #E88C58",
"3X c #DC8854",
"4X c #D08050",
"5X c #C87C4C",
"6X c #BC7848",
"7X c #B47044",
"8X c #A86840",
"9X c #A0643C",
"0X c #9C6038",
"qX c #905C34",
"wX c #885830",
"eX c #80502C",
"rX c #744C28",
"tX c #6C4824",
"yX c #5C4020",
"uX c #543C1C",
"iX c #483818",
"pX c #403018",
"aX c #382C14",
"sX c #28200C",
"dX c #600064",
"fX c #006464",
"gX c #006060",
"hX c #00001C",
"jX c #00002C",
"kX c #302410",
"lX c #480048",
"zX c #500050",
"xX c #000034",
"cX c gray11",
"vX c #4C4C4C",
"bX c gray36",
"nX c gray25",
"mX c gray19",
"MX c #343434",
"NX c #D8F4F4",
"BX c #B8E8E8",
"VX c #9CDCDC",
"CX c #74C8C8",
"ZX c #48C0C0",
"AX c #20B4B4",
"SX c #20B0B0",
"DX c #00A4A4",
"FX c #009898",
"GX c #008C8C",
"HX c #008484",
"JX c #007C7C",
"KX c #007878",
"LX c #007474",
"PX c #007070",
"IX c #006C6C",
"UX c #980088",
/* pixels */
"cX    cXcXL.1.>.>.L.cXcXcXcXcX    cXcXcXL.cXcX  cXcXcXcXcXe >.>.>.>.L.cXcXcXcXcXcXcXcXcXL.1.>.1.L.      cXcXcXcXcXe >.L.1.e   cX",
"  cXcXcXe L.>.>.>.L.q >.>.e cXcXcXcX1.L.L.cXcXcXcXcXcXcXcXcX<.>.1.<.kXe 1.cXcXe L.1.cXcXL.1.>.L.cXcXcXcXcX1.sXsXsXe 1.e cXcXcX  ",
"cXcXsXe 1.<.<.1.<.kX>.>.<.e cXcXcXcX<.1.1.L.cXcXcXcXcXcX1.sXe 1.<.e yXyXpXe cX<.1.L.cXL.<.>.1.L.L.sXe e e pXiXuXiXe <.cXcXcXcXcX",
"cXL.>.1.iXe <.<.e 1.>.>.L.e <.cX1.cXL.<.L.cXcXsXcXcXcX1.sXiXkX<.e uXyXrXrXcXe <.<.L.L.1.L.>.<.e kXkXsXuXuXuXuXyXyXe L.iXe cX  cX",
"<.1.>.1.1.1.<.e L.1.>.1.L.nXrXuXkXcXcXcXcXcX1.kXL.pXe sXkXpXe L.e uXuXyXrXiXcXe L.q 1.>.e >.L.kXuXiXiXpXuXuXuXrXeXe L.rXyXe   cX",
">.>.>.>.e L.L.e L.1.>.L.L.uXwXwXeXiXcXcXcXiX<.kXyXiXiXkXe sXuXL.kXuXyXuXyX1.pX1.cXq >.>.1.1.e pX1.kXuXuX<.uXyXrXeXrXe yXrXpXcXcX",
"<.1.<.<.L.e e sX<.>.1.L.e iXyXwXeXuXcXcXcX1.iXiXyXuXnXiXkXe iXe uXnXiXiXuXyXuX1.cXq >.1.<.<.e kXsXkXpXkXe iXyXrXeXrXe eXrXiX1.cX",
"e <.<.e sX1.e <.L.>.<.e 1.sXiXuXuXuXe cXcXcXiXiXuXuXyXyXuXkXkXe yXiXL.kXiXuX1.1.1.<.>.L.1.L.e L.L.pXsXkXiXuXyXrXrXrXe wXrXsXcXcX",
"cXe <.cXcXcXcXcXe >.L.cXcX1.sXpXuXiXiXsXcXcXpXL.iXiXuXiXiXL.pXe iXL.1.1.kXiXsX1.iXL.>.e e L.L.>.L.L.sXpXiXuXrXnXyXrXrXeXeXiXkX1.",
"cXe L.cXcXcXcXcX1.1.e cXcXcXsXpXiXiXL.L.L.L.L.kXL.L.yXiX<.cXiXe uXkXcXkXiXkXsXcX1.L.1.cXcXe >.>.1.L.iXiXkXiXyXyXuXuXyXeX$ iXkXsX",
"cXcXe cXcXcXcXcXcX<.e cXcX1.sXe 1.1.L.1.<.<.q L.kXpX<.iXkXcXe L.iXsXcXsXpXe cX1.cXL.<.cXe e L.>.L.e sXcX1.kXiXiXiX<.L.iX<.1.cXcX",
"sXcXe cXcXcXcXcXcXL.e cXcXcXL.L.L.<.>.>.>.1.L.cXcXcXsXkXkXcXcXL.cX1.cXcXsXcXcXcXcXL.L.cXcXe e 1.e 1.1.cXcXcXe kX1.cXcXcXsXcXcXcX",
"cXcXcXcXcX  cXcXcXL.L.cXcXcXcXcX1.<.<.1.e e 1.cXcXcXcXsXcXcXcXcXcXcXcXcXcX    cXcX  e cXcXcXcX<.1.cXcXcXcXcXcXcXcXe e cXcXcXcXcX",
"cXcXcXcXcXcXcX  cXe cXcXcXcXcXcXcXL.L.L.<.L.<.cXcXsXsXcXcX  cXcXcXcXcXcX      cX  cXe cXcXcXcXL.e cX1.L.1.<.e cXe <.1.L.cXcXcXcX",
"cXcXcXcXcXcX  cXcXe L.e L.L.L.cXcXe cXe e e e sXkXpXpXe cXcXcX1.>.>.L.cXcXcXcXcXcXcXL.1.>.1.L.e e <.<.>.>.>.1.L.<.>.1.1.cX1.cXcX",
"kXiXe sXsX1.cXcXcXe e >.1.>.<.e >.>.q cXcXcXsXkXuXyXuXiX1.cXcXL.<.1.L.q cXcXcX1.1.q >.>.e 1.cXe e L.L.1.1.L.<.cXL.<.L.<.cXkXcXcX",
"uXuXpXuX<.kX1.sXcXe 1.L.1.<.L.e <.>.>.cXcXcXkXiX<.uXrXrXkXcXcXe q 1.<.<.e cX1.sXkX>.>.<.e cXcXL.kXcXL.L.<.1.cXcXe e e cXcXkX1.cX",
"kXiXL.L.L.iXpXcXcXL.L.<.<.L.cXe L.>.>.1.L.e L.L.e kXuXuX1.cXe L.1.>.1.<.e 1.sXkX1.>.>.L.e cXiXyXpXcXcXcXL.L.>.L.cXcXcXcXsXuXkXL.",
"kXL.L.1.q 1.uXkXcXL.<.L.L.cXcX1.L.1.>.1.L.<.<.>.1.L.e L.e e 1.<.1.1.>.<.sX1.kXL.1.>.1.L.<.L.yXyXiXkX1.cXe 1.>.>.<.L.cX1.iXiXL.kX",
"1.L.>.>.>.q 1.kXcXcXe e L.cX1.sXe L.>.1.L.1.>.:.:.>.<.L.e L.sXL.1.>.1.<.e kXL.L.1.>.L.>.>.<.L.rXyX1.cXcXcXcX1.1.1.>.<.e iXiXsXkX",
"1.L.<.>.:.>.1.kX1.cXcXe e cX1.kXiXL.1.>.<.>.<.:.>.>.<.eXuXe cXcX<.1.1.e e q >.<.>.1.L.>.>.1.L.uXuXkX1.cXcXcXcXe L.1.>.1.kXe kXkX",
"sX1.<.1.>.1.e 1.1.cXcXcXe cX1.e iXe <.>.L.1.<.>.>.<.L.uXL.cXcXcXe L.<.e sX>.>.1.>.<.e L.>.<.sXuXiXcXcX1.cXcX1.1.sX<.>.1.yXiXkXe ",
"cXkX<.<.<.<.sX1.cXcXcXcXcXcXcX1.L.cXL.>.e <.<.>.>.L.L.1.sXcXcX  e L.q 1.1.>.>.1.>.L.cXe 1.L.e kXcXcX1.cXcXcXcX1.1.iX1.q iXiX<.cX",
"cXcXcXL.L.L.cXcXcXcXcXcXcXcXcXcXcXsXe 1.L.L.L.>.1.<.1.>.<.L.>.1.e L.>.>.>.>.1.L.1.e L.sX<.e e cX1.cXcXcXcXcXcX1.kXkX<.L.e sXcXcX",
"cXcXcXcXe L.cXcXcXcXcXcX      cX1.1.e <.L.e e <.L.>.>.1.<.1.>.1.1.1.>.>.>.>.L.1.<.e L.cXL.e sXcXcXcXcXL.1.1.cXcXcXsXL.L.cX1.cXcX",
"cXcXcXcXe cXcXcXcXcXcXcX      cXcXcXe L.cXe L.L.e 1.>.1.1.>.>.>.e 1.>.1.>.1.L.<.L.e L.cXe e cXcXcXcXL.1.>.<.1.cXcXcXe 1.cXcXcXcX",
"cXcXcXcXe cXcXcXcXcXcXcX      cXcXL.L.L.cXL.L.L.e <.>.<.<.1.>.<.L.1.>.L.>.<.e >.L.L.cXe e cXcXcXcXcXe L.L.L.L.cXcXcXe L.L.1.1.L.",
"1.cXcXcXcXcXcX  cXcXcXcX  cXcXcXL.1.<.e cXL.1.L.e L.1.L.e <.1.e <.>.1.L.>.L.1.>.e <.sXcXL.cXcX  cXcXcXcXcXcXcXcXcXcXL.e L.<.1.L.",
"L.cXcXsXcX1.L.L.cXcX  cXcXcXcXe <.<.<.e cXe <.<.1.e <.1.cXe <.kXL.>.<.e 1.e >.>.e >.L.e 1.cX          cXcXcXcXcXcXcXcXL.1.>.>.1.",
"1.kXq >.<.>.1.<.1.cXcXcXcXcXe cXcXL.e e e e cX1.L.L.L.<.1.e L.uXe >.L.e <.e <.>.e <.uXiXiX1.cX  L.1.1.L.cXcX1.1.sXcXcXL.<.>.>.>.",
"e iX>.>.1.1.:.>.L.L.1.sXcX1.sXpXkX1.<.e <.L.cX<.L.<.e e sXpXL.iXiX1.e e L.e e >.e e rXyXkXpXcXe L.<.1.L.1.sXcXcXkXsXcXcXL.<.>.1.",
"e 1.>.>.<.1.:.1.q 1.L.L.cXcXsXkXiXL.>.L.>.e cXL.L.1.cXe e pXe yX<.<.e cXL.L.iX1.L.rXrXuXkXsXcXL.1.>.1.1.L.sXkXcXe sX1.cXcXe >.L.",
"e 1.>.1.L.<.>.L.e <.>.<.L.kX1.kXiX1.>.L.L.L.cX<.e e cXe 1.kXe yXkXL.e e e e e <.L.iX1.<.e cXq >.>.1.1.>.>.L.cXsXiX1.sXcXkXe 1.e ",
"L.1.>.L.1.<.>.L.L.L.>.1.1.L.pXpXkXe <.L.1.e kXcXe cXcXcXcX1.e <.pXL.L.cXe L.1.L.1.kX<.e cXcX>.>.<.<.1.1.>.>.<.L.kXcX1.kXuXyX<.e ",
"<.>.1.L.L.1.1.e cXL.<.1.>.1.q kX1.L.<.e iXuXuXkXcXcXcXcXcXcXe kXcXe 1.1.e 1.kXe kXkXcXcXcX1.>.>.L.e >.L.1.1.1.>.<.e e kXiXiXL.kX",
"L.>.<.e e <.<.e cX1.L.1.>.>.q L.1.1.L.e kXiXiXe 1.cXcXcXcXcXL.sX1.e cXcXe sXsXe e 1.cXcXL.1.>.1.L.e 1.e e e L.1.>.1.cXe iXpXe cX",
"e >.L.cXcXe L.cXcXcX1.<.1.>.e L.<.1.L.1.kXsXcXcXcXcX  cXcXcXL.cXcXe cXcXL.cXcXL.cXcXcXcXL.1.>.L.L.L.<.e cXcXcX<.>.1.1.kXsXsXe cX",
"cX1.e cXcXcXL.cXcXcXcX1.L.>.L.1.>.>.1.L.cX1.cXcXcX    cXcXcXcXcXcXe 1.e L.cXcX1.L.1.<.L.<.>.1.L.1.L.L.cXcXcXcXcX1.q cXcX1.cXL.cX",
"cX<.e cXcXcXe cXcXcXcXcXe >.L.<.>.>.1.>.>.q cXcX1.L.L.cXcXcXcXcX1.L.L.1.<.<.<.<.>.>.>.1.L.>.<.e L.e e cXcXcXcXcX<.L.cXcXcXcXcXcX",
"cXL.e cXcXcXe cXcXcXcXe L.1.L.L.<.>.e 1.>.>.L.e 1.:.<.L.cXcXcXcX<.L.>.>.L.cXe L.1.1.L.<.e >.L.e cXL.e kXcXcXcX1.L.L.cXcXcXcXcXcX",
"cXL.L.sX1.kXe 1.cXcXcX<.1.<.L.  e >.e L.>.>.1.1.>.:.>.1.<.e cXcXe 1.1.<.L.1.>.L.L.<.1.cXcX1.e cXcXL.L.iXiXsXcXe e 1.cXcXcXcXcXcX",
"cXe 1.kXyXyXe uXiXcX1.L.<.L.L.cXe 1.e L.1.>.1.L.1.>.1.e uX1.e cXcXe L.e cX1.>.1.<.L.cXcXcX<.e cXcX1.uXyXyXpXcX<.e L.<.L.L.L.L.sX",
"L.e cXkXuXyXL.wXwXe cXcX1.e cXcX1.<.e uXL.>.1.L.e >.L.uXrX>.1.e cXcXe cXe >.>.>.>.L.cXL.L.L.e cXcX1.yXeXyXiXe 1.L.>.L.<.1.<.1.e ",
"e e cX1.kXyXL.wXeXeXuXkXcXe cXcXsXL.yXrXL.1.>.<.kX1.e uXrXrX>.1.cXcXe cXcX<.<.1.<.cXcXL.L.L.L.cXcXcXyXqXeXuXe e L.>.1.1.>.>.>.<.",
">.e 1.1.iXyXiXyXyXuXuXiXkXL.cXcXsXe uXyXe <.>.L.uX<.L.kXuXuXrXyXL.cXcXcXcXe <.<.e cXcX1.kXe cXcXcXcXrXwXrXuXiX<.1.>.1.1.>.1.1.1.",
"1.<.>.sXiXyXuXuXiXkXpXuXiXcXcXcXsXe uXyXkXL.>.e yXL.kXpXkXuXyXyXiXcXcXcX  cX<.e 1.cXcXcXpXe sXcXcXe yXrXrXyXL.>.>.>.>.<.L.e L.<.",
"<.1.>.kXuXyXuXuXkXe cX<.pXcXcXcX1.L.iXuXsXe 1.yXiXL.1.L.kXyXyXyXkX1.cXcXcXcXL.e cXcX1.cXkXe kXcXcX1.kXiXuXiX1.<.1.>.<.L.e 1.L.L.",
"<.1.>.>.q yXiXuXe sX1.cX1.cXcXcXcX1.e e iXe <.iXiXe cXkXpXiXiX1.kX1.cXL.cX  e cXcXcX1.cXe e iX1.cXcXsXcXsX1.e e <.1.e <.cXcX1.L.",
"<.1.1.>.>.kXiXkX1.cXcXcXcXcXcX  cXcXcX1.1.e L.kXcXe cXsXpXe L.1.1.1.cX<.cXcXe cXcXcXcXcXpXL.iXsXcXcXcXcXcX1.>.>.e <.L.L.cXcXe L.",
"1.1.L.>.>.1.kXsXcXcXcXcXcXcX        cXcXcXL.L.cXcXe sXcX1.L.1.cXcXcXcX<.cXcXcXcXcXcXcXcX1.L.sXcXcXcXcXcXcXnX>.1.e L.1.e cXcXe L.",
">.1.L.1.>.1.L.cXcXL.L.L.L.cX          cXcX1.e cXcXe cXcXcXe cXcXcXcXcXL.L.L.    cXcXcXcXcXcXcXcXcXcXcXcXcX<.>.1.1.L.1.L.cXcXcX<.",
">.<.e L.>.1.L.L.L.<.>.>.<.<.1.1.e L.  cXq >.e e cXL.cXcX1.<.1.cXcXe cXL.<.>.1.L.e L.cXcXcXcXcXcXcX  cXcXcXL.1.<.L.e >.L.cXcXcXL.",
">.L.q L.1.>.<.1.>.>.:.:.>.>.1.<.L.1.L.L.>.>.e >.1.L.cXcX<.1.L.e cXe cXL.>.:.:.>.<.e cXcX1.cXcXcXcXcX1.>.L.1.<.1.L.e >.<.<.kXsXe ",
"1.e pXe <.>.L.1.<.>.>.>.>.1.<.e e L.sX1.>.>.e >.nXcXe L.e L.<.<.L.cX<.cXe :.>.>.<.kXe kXkXkXsXcXcX1.1.>.1.L.L.e e e 1.L.<.sXcXsX",
"<.e iX1.L.>.e cXL.e <.>.1.L.1.1.1.1.L.1.>.1.L.>.<.e e 1.1.e e cXcXcXe <.e >.>.<.L.uXuXrXuXuXiXe cXe >.>.>.e e kXkXe <.e cX1.e sX",
"L.e uXpXe 1.cXcXcXL.e 1.e e kX1.1.1.L.>.>.L.L.1.L.e pXpXpXL.cX1.e iXe L.L.>.>.L.L.uXrXwXwXrXyXiXcXcX<.<.1.L.e e pXL.e 1.1.cX1.iX",
"L.L.uXiXe <.1.cXcXcXe <.e sXcXsX1.<.<.>.1.L.1.<.1.cX1.pXkXcX1.1.kXe e L.1.>.1.L.pXuXrXeXwXrXyXiX1.cXe <.<.e L.kXkXL.e kXcXsXiX<.",
"e kXL.iXe L.cX  cXcXL.L.cX1.cXcXcXL.L.1.<.e rXL.L.cXkX1.L.cXcXsXe e e L.e <.L.L.kXiXuXyXyXrXuXkXcXcXcX<.e iXiXkXsXe sXpXkXpXuXe ",
"e iXsXiXL.L.cX    cXe L.cX1.1.sXcX1.e <.L.uXuXe e cX1.1.cXcXcXcXiXiXe L.L.L.e pXpXiXiXiXpXkXkXsXcXcXcXL.e iXiX<.uXe iX<.pX1.iXuX",
"e L.pXkXiXe e cX  cXcXe cXcXsXkXsXcXcXe L.uXiXe L.cXcX<.cXcXcX1.1.e 1.L.L.L.sXiXnXuXpXpXe 1.1.cXcX    e 1.kXiXkXL.e uXiXL.pXiXuX",
"e 1.e iX1.e 1.cX    cXe sXcX1.1.cXcXcX1.e e e L.cXcXcXe cXcXcXsXcXcXcXcXcXcXcX1.iXkXkXe 1.cXcXcXcXcX  cXcXsXkXe 1.kXe 1.cXcX1.iX",
"L.1.cXkXe e cX      cXe cX1.cXcXcXcXcXcXe cXsXsXcXcXcXcXcX  cX1.cXcXcXcXcXcXcXcXkXcX1.cXcXcXq >.>.e   cXcXe cXcXcX1.<.1.<.L.cXcX",
"L.cXcXcXcXe cXcX  cXcXcXcXcXcXcX  cXcXcXe cX1.cXcXcXcXcX    1.>.L.cXcXcXcXcXcXcX1.cXcXcXcXcX>.>.<.e   cXcXcXcXcXcXL.>.>.>.e 1.cX",
"cX1.cXcXcXL.>.1.<.1.cXcXcXcXcXcXcXcXcXcXe cXcXcXcX  cXcXcX1.1.>.1.<.cXcXcXcXcX1.sXcXcXcX  1.>.>.L.e cXcXcXcXcXcXcX1.>.1.L.L.1.cX"
};
